<svg width="16" height="16" viewBox="0 0 16 16" fill="none" xmlns="http://www.w3.org/2000/svg">
<path d="M1.70779 5.14176L2.13362 4.71297C2.26764 4.57906 2.44594 4.50528 2.63651 4.50528C2.82696 4.50528 3.00548 4.57906 3.13949 4.71297L7.99709 9.57078L12.8603 4.70758C12.9941 4.57367 13.1726 4.5 13.3631 4.5C13.5535 4.5 13.7321 4.57367 13.8661 4.70758L14.292 5.13373C14.5693 5.41085 14.5693 5.86226 14.292 6.13939L8.50177 11.9504C8.36797 12.0842 8.18966 12.1785 7.99752 12.1785H7.9953C7.80473 12.1785 7.62643 12.0841 7.49263 11.9504L1.70779 6.15514C1.57377 6.02133 1.50021 5.83764 1.5 5.64718C1.5 5.45662 1.57377 5.27546 1.70779 5.14176Z" fill="white"/>
</svg>
