<svg width="238" height="67" viewBox="0 0 238 67" fill="none" xmlns="http://www.w3.org/2000/svg">
<g filter="url(#filter0_bi_78_4858)">
<path d="M0 50.7028V4.11693C0 1.66846 1.98487 -0.316406 4.43334 -0.316406H220.908C222.084 -0.316406 223.212 0.150674 224.043 0.982085L236.963 13.9018C237.794 14.7332 238.261 15.8608 238.261 17.0366V62.8836C238.261 65.3321 236.276 67.3169 233.828 67.3169H16.6141C15.4383 67.3169 14.3107 66.8498 13.4793 66.0184L1.29849 53.8376C0.467082 53.0062 0 51.8786 0 50.7028Z" fill="white" fill-opacity="0.1"/>
<path d="M0.660094 50.7028V4.11693C0.660094 2.03303 2.34943 0.343688 4.43334 0.343688H220.908C221.909 0.343688 222.869 0.741224 223.576 1.44884L236.496 14.3685C237.203 15.0761 237.601 16.0359 237.601 17.0366V62.8836C237.601 64.9675 235.912 66.6568 233.828 66.6568H16.6141C15.6134 66.6568 14.6537 66.2593 13.946 65.5517L1.76525 53.3709L1.30171 53.8344L1.76525 53.3709C1.05763 52.6633 0.660094 51.7035 0.660094 50.7028Z" stroke="url(#paint0_linear_78_4858)" stroke-width="1.32019"/>
</g>
<defs>
<filter id="filter0_bi_78_4858" x="-26.4038" y="-26.7202" width="291.069" height="120.441" filterUnits="userSpaceOnUse" color-interpolation-filters="sRGB">
<feFlood flood-opacity="0" result="BackgroundImageFix"/>
<feGaussianBlur in="BackgroundImageFix" stdDeviation="13.2019"/>
<feComposite in2="SourceAlpha" operator="in" result="effect1_backgroundBlur_78_4858"/>
<feBlend mode="normal" in="SourceGraphic" in2="effect1_backgroundBlur_78_4858" result="shape"/>
<feColorMatrix in="SourceAlpha" type="matrix" values="0 0 0 0 0 0 0 0 0 0 0 0 0 0 0 0 0 0 127 0" result="hardAlpha"/>
<feOffset/>
<feGaussianBlur stdDeviation="2.64038"/>
<feComposite in2="hardAlpha" operator="arithmetic" k2="-1" k3="1"/>
<feColorMatrix type="matrix" values="0 0 0 0 1 0 0 0 0 0.937667 0 0 0 0 0.716667 0 0 0 0.25 0"/>
<feBlend mode="normal" in2="shape" result="effect2_innerShadow_78_4858"/>
</filter>
<linearGradient id="paint0_linear_78_4858" x1="-82.2645" y1="-20.6298" x2="-57.014" y2="112.123" gradientUnits="userSpaceOnUse">
<stop stop-color="#14F194"/>
<stop offset="1" stop-color="white" stop-opacity="0"/>
</linearGradient>
</defs>
</svg>
