<svg width="46" height="47" viewBox="0 0 46 47" fill="none" xmlns="http://www.w3.org/2000/svg">
<path d="M10.1347 32.8196C20.1385 36.6545 28.6518 37.4015 38.2992 31.4323C38.2284 31.5365 36.3201 34.3136 31.3017 35.7369C32.3619 37.1602 33.8109 38.7917 33.8109 38.7917C37.0269 38.7917 40.1722 37.8891 42.8934 36.1534C45.0139 34.7648 46.2154 32.3695 45.968 29.8702C45.5439 25.6002 44.519 21.4345 42.9287 17.4424C40.9143 12.2353 36.0727 8.62495 30.4536 8.10419C29.9588 8.06946 29.6054 8.06946 29.3934 8.06946L28.828 8.62484C35.2953 10.43 38.5113 13.2419 38.5819 13.3461C28.6512 8.41656 16.9182 8.3472 6.91674 13.1378C6.91674 13.1378 10.0974 10.0482 17.1301 8.41656L16.706 8C15.9639 8 15.257 8.06946 14.515 8.17355C9.31987 9.04141 4.97304 12.5476 3.09996 17.3729C1.47426 21.5386 0.414076 25.9126 0.025358 30.3561C-0.18668 32.7166 0.944223 35.0426 2.92328 36.3964C5.53844 38.0974 8.6484 39 11.7937 39C11.7937 39 13.0659 37.3684 14.3383 35.9104C9.56726 34.5218 7.62357 31.7447 7.58821 31.6405L8.48609 32.0909C9.02285 32.3603 9.57314 32.6043 10.1347 32.8196ZM15.6812 29.8007C13.384 29.7312 11.5817 27.822 11.6524 25.5308C11.7231 23.3785 13.4901 21.6428 15.6812 21.5733C17.9784 21.6428 19.7807 23.552 19.71 25.8432C19.604 27.9956 17.8723 29.7313 15.6812 29.8007ZM30.1001 29.8007C27.8029 29.7312 26.0006 27.822 26.0713 25.5308C26.142 23.3785 27.909 21.6428 30.1001 21.5733C32.3973 21.6428 34.1996 23.552 34.1289 25.8432C34.0583 27.9956 32.2912 29.7313 30.1001 29.8007Z" fill="white"/>
</svg>
