<svg width="32" height="32" viewBox="0 0 32 32" fill="none" xmlns="http://www.w3.org/2000/svg">
<path d="M16 5.3125C18.4657 5.31396 20.8552 6.16774 22.7635 7.72921C24.6718 9.29068 25.9817 11.4638 26.4712 13.8805C26.9607 16.2971 26.5998 18.8087 25.4495 20.9897C24.2993 23.1707 22.4305 24.8871 20.1597 25.848C17.5478 26.9512 14.6047 26.9717 11.9778 25.9049C9.35083 24.8381 7.25525 22.7715 6.15203 20.1597C5.04881 17.5478 5.02833 14.6047 6.09509 11.9778C7.16185 9.35083 9.22847 7.25525 11.8403 6.15203C13.1562 5.59501 14.5711 5.30946 16 5.3125ZM16 4C9.37281 4 4 9.37281 4 16C4 22.6272 9.37281 28 16 28C22.6272 28 28 22.6272 28 16C28 9.37281 22.6272 4 16 4Z" fill="black"/>
<path d="M18.8465 11.5352C18.3626 11.5354 17.8819 11.6146 17.4234 11.7695C16.4997 11.4595 15.5 11.4595 14.5762 11.7695C13.9047 11.5439 13.1891 11.4813 12.4886 11.5869C11.7881 11.6925 11.1227 11.9633 10.5475 12.3768C9.97233 12.7904 9.50378 13.3348 9.18059 13.9652C8.8574 14.5956 8.68884 15.2939 8.68884 16.0023C8.68884 16.7108 8.8574 17.409 9.18059 18.0395C9.50378 18.6699 9.97233 19.2143 10.5475 19.6279C11.1227 20.0414 11.7881 20.3122 12.4886 20.4178C13.1891 20.5234 13.9047 20.4608 14.5762 20.2352C15.5 20.5451 16.4997 20.5451 17.4234 20.2352C18.037 20.4413 18.6881 20.5116 19.3316 20.4411C19.975 20.3707 20.5955 20.1612 21.1499 19.8271C21.7043 19.4931 22.1795 19.0425 22.5425 18.5065C22.9056 17.9706 23.1477 17.3621 23.2522 16.7233C23.3567 16.0845 23.3211 15.4306 23.1478 14.807C22.9746 14.1833 22.6677 13.6047 22.2487 13.1114C21.8296 12.6181 21.3083 12.2218 20.7208 11.9499C20.1334 11.6781 19.4938 11.5372 18.8465 11.537V11.5352ZM17.423 18.6855C17.12 18.8471 16.7917 18.9557 16.4522 19.0066C17.2021 18.185 17.6179 17.1128 17.6179 16.0005C17.6179 14.8881 17.2021 13.8159 16.4522 12.9944C16.7917 13.0453 17.12 13.1539 17.423 13.3155C17.911 13.5738 18.3194 13.9603 18.6043 14.4334C18.8891 14.9065 19.0396 15.4482 19.0396 16.0005C19.0396 16.5527 18.8891 17.0945 18.6043 17.5675C18.3194 18.0406 17.911 18.4271 17.423 18.6855ZM13.1531 19.0403C12.7539 19.0403 12.3586 18.9617 11.9898 18.8089C11.621 18.6562 11.2859 18.4322 11.0036 18.15C10.7213 17.8677 10.4974 17.5326 10.3447 17.1638C10.1919 16.795 10.1133 16.3997 10.1133 16.0005C10.1133 15.6013 10.1919 15.206 10.3447 14.8372C10.4974 14.4684 10.7213 14.1332 11.0036 13.851C11.2859 13.5687 11.621 13.3448 11.9898 13.192C12.3586 13.0393 12.7539 12.9606 13.1531 12.9606C13.9593 12.9606 14.7325 13.2809 15.3026 13.851C15.8727 14.4211 16.193 15.1943 16.193 16.0005C16.193 16.8067 15.8727 17.5799 15.3026 18.15C14.7325 18.72 13.9593 19.0403 13.1531 19.0403ZM19.2994 19.0066C20.0493 18.185 20.4651 17.1128 20.4651 16.0005C20.4651 14.8881 20.0493 13.8159 19.2994 12.9944C20.0192 13.1025 20.6764 13.4654 21.1513 14.0171C21.6263 14.5688 21.8875 15.2725 21.8875 16.0005C21.8875 16.7284 21.6263 17.4322 21.1513 17.9838C20.6764 18.5355 20.0192 18.8984 19.2994 19.0066Z" fill="black"/>
</svg>
