<svg width="46" height="44" viewBox="0 0 46 44" fill="none" xmlns="http://www.w3.org/2000/svg">
<path d="M15.6238 35.2039C15.6238 35.3836 15.4172 35.5273 15.1566 35.5273C14.8602 35.5543 14.6535 35.4105 14.6535 35.2039C14.6535 35.0242 14.8602 34.8805 15.1207 34.8805C15.3902 34.8535 15.6238 34.9973 15.6238 35.2039ZM12.8297 34.7996C12.7668 34.9793 12.9465 35.1859 13.216 35.2398C13.4496 35.3297 13.7191 35.2398 13.773 35.0602C13.827 34.8805 13.6562 34.6738 13.3867 34.593C13.1531 34.5301 12.8926 34.6199 12.8297 34.7996ZM16.8008 34.6469C16.5402 34.7098 16.3605 34.8805 16.3875 35.0871C16.4145 35.2668 16.648 35.3836 16.9176 35.3207C17.1781 35.2578 17.3578 35.0871 17.3309 34.9074C17.3039 34.7367 17.0613 34.6199 16.8008 34.6469ZM22.7125 0.21875C10.2512 0.21875 0.71875 9.6793 0.71875 22.1406C0.71875 32.1043 6.98984 40.6305 15.9473 43.6313C17.0973 43.8379 17.5016 43.1281 17.5016 42.5441C17.5016 41.9871 17.4746 38.9145 17.4746 37.0277C17.4746 37.0277 11.1855 38.3754 9.86484 34.3504C9.86484 34.3504 8.84062 31.7359 7.36719 31.0621C7.36719 31.0621 5.30977 29.6516 7.51094 29.6785C7.51094 29.6785 9.74805 29.8582 10.9789 31.9965C12.9465 35.4645 16.2438 34.4672 17.5285 33.8742C17.7352 32.4367 18.3191 31.4395 18.966 30.8465C13.9438 30.2895 8.87656 29.5617 8.87656 20.9187C8.87656 18.448 9.55937 17.2082 10.9969 15.627C10.7633 15.043 9.99961 12.6352 11.2305 9.52656C13.1082 8.94258 17.4297 11.9523 17.4297 11.9523C19.2266 11.4492 21.1582 11.1887 23.0719 11.1887C24.9855 11.1887 26.9172 11.4492 28.7141 11.9523C28.7141 11.9523 33.0355 8.93359 34.9133 9.52656C36.1441 12.6441 35.3805 15.043 35.1469 15.627C36.5844 17.2172 37.4648 18.457 37.4648 20.9187C37.4648 29.5887 32.173 30.2805 27.1508 30.8465C27.9773 31.5562 28.6781 32.9039 28.6781 35.0152C28.6781 38.043 28.6512 41.7895 28.6512 42.5262C28.6512 43.1102 29.0645 43.8199 30.2055 43.6133C39.1898 40.6305 45.2812 32.1043 45.2812 22.1406C45.2812 9.6793 35.1738 0.21875 22.7125 0.21875ZM9.45156 31.2059C9.33477 31.2957 9.36172 31.5023 9.51445 31.673C9.6582 31.8168 9.86484 31.8797 9.98164 31.7629C10.0984 31.673 10.0715 31.4664 9.91875 31.2957C9.775 31.152 9.56836 31.0891 9.45156 31.2059ZM8.48125 30.4781C8.41836 30.5949 8.5082 30.7387 8.68789 30.8285C8.83164 30.9184 9.01133 30.8914 9.07422 30.7656C9.13711 30.6488 9.04727 30.5051 8.86758 30.4152C8.68789 30.3613 8.54414 30.3883 8.48125 30.4781ZM11.3922 33.6766C11.2484 33.7934 11.3023 34.0629 11.509 34.2336C11.7156 34.4402 11.9762 34.4672 12.093 34.3234C12.2098 34.2066 12.1559 33.9371 11.9762 33.7664C11.7785 33.5598 11.509 33.5328 11.3922 33.6766ZM10.368 32.3559C10.2242 32.4457 10.2242 32.6793 10.368 32.8859C10.5117 33.0926 10.7543 33.1824 10.8711 33.0926C11.0148 32.9758 11.0148 32.7422 10.8711 32.5355C10.7453 32.3289 10.5117 32.2391 10.368 32.3559Z" fill="white"/>
</svg>
