<svg width="24" height="24" viewBox="0 0 24 24" fill="none" xmlns="http://www.w3.org/2000/svg">
<path d="M10.8 17.6H13.2V16.4H14.4C14.74 16.4 15.025 16.285 15.255 16.055C15.485 15.825 15.6 15.54 15.6 15.2V11.6C15.6 11.26 15.485 10.975 15.255 10.745C15.025 10.515 14.74 10.4 14.4 10.4H10.8V9.2H15.6V6.8H13.2V5.6H10.8V6.8H9.6C9.26 6.8 8.975 6.915 8.745 7.145C8.515 7.375 8.4 7.66 8.4 8V11.6C8.4 11.94 8.515 12.225 8.745 12.455C8.975 12.685 9.26 12.8 9.6 12.8H13.2V14H8.4V16.4H10.8V17.6ZM2.4 21.2C1.74 21.2 1.175 20.965 0.705 20.495C0.235 20.025 0 19.46 0 18.8V4.4C0 3.74 0.235 3.175 0.705 2.705C1.175 2.235 1.74 2 2.4 2H21.6C22.26 2 22.825 2.235 23.295 2.705C23.765 3.175 24 3.74 24 4.4V18.8C24 19.46 23.765 20.025 23.295 20.495C22.825 20.965 22.26 21.2 21.6 21.2H2.4ZM1.8 19.4H22.2V3.8H1.8V19.4Z" fill="black"/>
</svg>
