<svg width="174" height="36" viewBox="0 0 174 36" fill="none" xmlns="http://www.w3.org/2000/svg">
<g clip-path="url(#clip0_92_2378)">
<path d="M28.3988 32.6185C28.3295 32.6729 28.2638 32.731 28.1872 32.7781C27.7933 33.0248 27.3957 33.2715 26.9982 33.5146C26.721 33.6815 26.4474 33.852 26.1629 34.0044C25.8967 34.1459 25.6267 34.2765 25.3495 34.3926C24.952 34.5558 24.5471 34.7046 24.1459 34.8569C23.9599 34.9295 23.7702 34.9948 23.5805 35.0674C23.5039 35.0964 23.4273 35.1472 23.3508 35.1581C22.5337 35.2669 21.7751 35.6442 20.9362 35.6551C20.5933 35.6587 20.2505 35.7676 19.9076 35.8329C18.5909 36.0832 17.2742 36.0288 15.9574 35.8401C15.465 35.7676 14.969 35.7095 14.4802 35.6224C14.141 35.5608 13.8091 35.4556 13.4699 35.3721C13.3313 35.3395 13.1927 35.3177 13.0541 35.2742C12.766 35.1871 12.4851 35.0928 12.2006 34.9984C12.1933 34.9984 12.1897 34.9876 12.1824 34.9876C11.7155 34.9549 11.3325 34.6828 10.9058 34.5413C10.8766 34.5304 10.8438 34.5377 10.8182 34.5232C10.4936 34.3527 10.1653 34.1858 9.84437 34.008C9.50516 33.823 9.1696 33.6271 8.83403 33.4348C8.79391 33.413 8.75014 33.3985 8.71367 33.3731C8.06443 32.9124 7.4079 32.4625 6.77325 31.9836C5.9854 31.385 5.26321 30.7138 4.64315 29.9375C4.08875 29.2445 3.53799 28.548 3.00546 27.8369C2.78297 27.5394 2.61884 27.202 2.43282 26.8791C2.26139 26.5889 2.07902 26.3023 1.92948 26.0012C1.7544 25.6529 1.6085 25.2901 1.45531 24.9309C1.41884 24.8402 1.42248 24.7277 1.37142 24.6516C1.13799 24.296 1.13799 23.8498 0.955615 23.5051C0.744065 23.1024 0.714886 22.6961 0.620053 22.2861C0.561695 22.0322 0.408503 21.8 0.372029 21.5461C0.306375 21.1071 0.306375 20.6608 0.255312 20.2219C0.196953 19.7212 0.0765882 19.2278 0.0364666 18.7308C-0.0291869 17.8746 -0.0182447 17.022 0.189658 16.1731C0.291786 15.7631 0.266254 15.3205 0.324612 14.896C0.361087 14.6167 0.437682 14.341 0.499688 14.0652C0.543457 13.8839 0.590874 13.7025 0.641938 13.5211C0.733123 13.2054 0.831603 12.8898 0.922789 12.5778C0.959263 12.4472 0.981147 12.313 1.03221 12.1896C1.23282 11.689 1.43707 11.1919 1.64862 10.6985C1.80546 10.3321 1.9623 9.96931 2.14467 9.6174C2.31245 9.29089 2.50941 8.97888 2.70273 8.66688C2.84862 8.43107 3.00182 8.19888 3.16595 7.97395C3.21701 7.90139 3.3082 7.85785 3.38115 7.7998C3.41762 7.8905 3.48692 7.9812 3.48692 8.0719C3.47963 9.42875 3.46139 10.782 3.4541 12.1388C3.4468 13.1038 3.4541 14.0652 3.4468 15.0303C3.4468 15.4656 3.63282 15.8538 3.9392 16.1078C4.17264 16.3037 4.54467 16.4125 4.85835 16.4234C5.73373 16.4524 6.61276 16.4053 7.48814 16.4016C7.85653 16.4016 8.22856 16.427 8.59695 16.4524C8.77568 16.4633 8.86321 16.5794 8.86321 16.7608C8.86321 17.1599 8.86321 17.559 8.86321 17.958C8.86321 18.8541 8.8778 19.7502 8.86321 20.6463C8.85592 21.0853 9.12218 21.3719 9.39939 21.6186C9.54893 21.7528 9.84072 21.7637 10.0705 21.7674C10.7416 21.7746 11.4164 21.7383 12.0912 21.7383C12.693 21.7383 13.2985 21.7601 13.9003 21.771C14.1118 21.7746 14.214 21.898 14.2395 22.0939C14.2541 22.1991 14.2577 22.3043 14.2614 22.4095C14.2614 23.5922 14.2614 24.7749 14.2614 25.9576C14.2614 26.3386 14.3416 26.6832 14.6808 26.9009C14.8267 26.9952 15.0018 27.1004 15.1623 27.104C16.4316 27.1222 17.7046 27.1149 18.9739 27.1149C19.0359 27.1149 19.0942 27.1149 19.1562 27.1149C19.4298 27.1222 19.4845 27.1802 19.4845 27.4523C19.4845 28.4899 19.4845 29.5311 19.4845 30.5687C19.4845 31.044 19.5283 31.512 19.7836 31.9147C20.0097 32.2702 20.3708 32.4734 20.8012 32.4843C21.1185 32.4915 21.4359 32.4516 21.7532 32.4516C23.2231 32.4444 24.6894 32.4371 26.1593 32.4444C26.8231 32.4444 27.4906 32.4698 28.1544 32.4915C28.2346 32.4915 28.3149 32.5314 28.3951 32.5532C28.3951 32.5786 28.3951 32.604 28.3951 32.6294L28.3988 32.6185Z" fill="black"/>
<path d="M21.8079 7.44441C21.8079 5.32932 21.8079 3.21423 21.8079 1.09552C21.8079 0.6384 21.9173 0.554957 22.355 0.671051C22.9204 0.819796 23.4967 0.946774 24.0547 1.12454C24.4669 1.25515 24.8608 1.45106 25.2657 1.61794C25.335 1.64697 25.4006 1.68324 25.4699 1.7159C26.0608 2.00613 26.6845 2.25283 27.2353 2.60474C28.0122 3.10177 28.7453 3.67135 29.4857 4.2228C29.8359 4.48401 30.1751 4.76336 30.4851 5.07174C30.9155 5.49258 31.324 5.93518 31.7179 6.38868C32.0571 6.78049 32.3708 7.19408 32.6699 7.61855C32.9945 8.07929 33.29 8.55818 33.5854 9.03707C33.7568 9.31279 33.9173 9.59214 34.0559 9.88238C34.2821 10.354 34.49 10.8365 34.7052 11.3118C34.7526 11.4134 34.8146 11.5113 34.8474 11.6165C34.924 11.856 34.9568 12.1172 35.0626 12.3421C35.2888 12.8174 35.3909 13.3217 35.5003 13.8296C35.5769 14.1779 35.5441 14.2432 35.1757 14.254C34.4717 14.2758 33.7678 14.2939 33.0638 14.2939C29.8322 14.3012 26.6006 14.3048 23.369 14.3012C22.9751 14.3012 22.5812 14.2831 22.1909 14.254C21.859 14.2286 21.8043 14.1633 21.8043 13.8296C21.8043 11.7 21.8043 9.56675 21.8043 7.43715L21.8079 7.44441Z" fill="black"/>
<path d="M21.8079 17.9801C21.8079 17.6173 21.8079 17.2581 21.8079 16.8953C21.8079 16.6885 21.91 16.5797 22.107 16.576C23.0808 16.5652 24.0584 16.5615 25.0322 16.5543C25.645 16.5506 26.2577 16.5325 26.8705 16.5325C28.6541 16.5289 30.4413 16.5253 32.2286 16.5325C33.1258 16.5325 34.0267 16.5543 34.924 16.5652C35.1793 16.5652 35.4346 16.5579 35.69 16.5724C35.865 16.5797 35.9745 16.6921 35.9781 16.8663C35.9927 17.6245 36.0109 18.3828 35.9963 19.141C35.9927 19.4095 35.752 19.5836 35.5149 19.6416C34.8802 19.794 34.2419 19.7759 33.6 19.7323C33.1878 19.7033 32.7757 19.6344 32.3635 19.6054C31.9587 19.5763 31.5538 19.5655 31.1453 19.5582C30.5106 19.551 29.8723 19.5292 29.2377 19.5582C28.5994 19.5909 27.9647 19.7215 27.3301 19.736C26.6699 19.7505 26.0061 19.6779 25.3459 19.6453C24.9337 19.6235 24.5216 19.6017 24.1058 19.5836C23.4419 19.5546 22.7781 19.5328 22.1143 19.4965C21.8772 19.482 21.8115 19.297 21.8079 19.0902C21.8042 18.7202 21.8079 18.3537 21.8079 17.9837V17.9801Z" fill="black"/>
<path d="M21.8042 23.3169C21.8042 22.9541 21.8006 22.5949 21.8042 22.2321C21.8115 21.8802 21.921 21.7714 22.2675 21.7641C22.9313 21.7496 23.5988 21.7315 24.2626 21.7278C25.2292 21.7206 26.1957 21.7278 27.1659 21.7278C28.738 21.7278 30.31 21.7278 31.8857 21.7278C32.6881 21.7278 33.4869 21.7206 34.2893 21.7278C34.5921 21.7278 34.8948 21.7605 35.1939 21.7677C35.3836 21.775 35.493 21.8802 35.4675 22.0507C35.4127 22.4425 35.3325 22.8307 35.245 23.2189C35.1975 23.4221 35.1173 23.618 35.0444 23.8139C34.9422 24.086 34.8474 24.3617 34.727 24.6266C34.6468 24.8043 34.4827 24.8442 34.2893 24.8406C32.4583 24.8225 30.6273 24.8007 28.7963 24.7971C26.6772 24.7898 24.558 24.7971 22.4389 24.8043C21.8115 24.8043 21.8042 24.8007 21.8042 24.1839C21.8042 23.8973 21.8042 23.6107 21.8042 23.3241V23.3169Z" fill="black"/>
<path d="M16.6176 6.83184C16.6176 5.15211 16.6176 3.476 16.6176 1.79627C16.6176 1.41171 16.5884 1.03078 16.5811 0.646215C16.5739 0.258026 16.6395 0.185468 17.0225 0.14556C17.5112 0.0947694 18 0.0185828 18.4887 0.000443083C18.7441 -0.00681279 19.0067 0.0766297 19.2656 0.134677C19.4517 0.174584 19.5137 0.326957 19.5173 0.493842C19.5246 0.816728 19.521 1.13961 19.5173 1.45887C19.51 2.27153 19.4918 3.08419 19.4918 3.89685C19.4918 7.05678 19.4918 10.2203 19.4954 13.3803C19.4954 13.5907 19.4954 13.8011 19.4954 14.0115C19.4954 14.1675 19.4042 14.251 19.2547 14.2546C18.4851 14.2691 17.7118 14.2909 16.9422 14.2836C16.6213 14.2836 16.5848 14.2074 16.5848 13.8446C16.5848 11.5083 16.5848 9.16823 16.5848 6.83184C16.5994 6.83184 16.6103 6.83184 16.6249 6.83184H16.6176Z" fill="black"/>
<path d="M14.2577 7.45514C14.2577 9.56297 14.2577 11.6708 14.2577 13.7786C14.2577 14.2249 14.2322 14.2539 13.7799 14.2611C13.0249 14.272 12.2662 14.272 11.5112 14.2793C11.2887 14.2793 11.1939 14.1777 11.1975 13.9637C11.1975 13.5501 11.1975 13.1365 11.1975 12.7229C11.1975 9.97655 11.1975 7.22658 11.1975 4.48023C11.1975 3.56236 11.2085 2.6445 11.2048 1.72663C11.2048 1.52709 11.2778 1.40011 11.4748 1.33844C11.8249 1.22597 12.1678 1.09174 12.5216 0.986529C12.9155 0.866807 13.3167 0.765225 13.7143 0.656387C14.1155 0.547549 14.2504 0.652759 14.2541 1.05909C14.2541 3.18869 14.2541 5.32191 14.2541 7.45151H14.2577V7.45514Z" fill="black"/>
<path d="M26.5969 30.1991C25.5137 30.1991 24.434 30.1991 23.3507 30.1991C22.9495 30.1991 22.5483 30.1846 22.1471 30.1665C21.8553 30.152 21.8042 30.0975 21.8042 29.8109C21.8042 29.0745 21.8006 28.3344 21.8042 27.5979C21.8042 27.1879 21.8553 27.1408 22.2565 27.1371C23.989 27.1263 25.7216 27.1117 27.4541 27.1081C28.5738 27.1081 29.6936 27.1299 30.8134 27.1335C31.4881 27.1335 32.1592 27.1154 32.834 27.1045C32.9179 27.1045 33.0018 27.1045 33.082 27.1117C33.4176 27.1444 33.4286 27.1662 33.2462 27.4419C32.8413 28.0514 32.4437 28.6681 32.0206 29.2631C31.8127 29.5533 31.5611 29.8182 31.3058 30.0685C31.2292 30.1447 31.0723 30.1665 30.952 30.1665C29.7811 30.1774 28.6067 30.1774 27.4322 30.1774C27.1513 30.1774 26.8705 30.1774 26.5933 30.1774C26.5933 30.1846 26.5933 30.1882 26.5933 30.1955L26.5969 30.1991Z" fill="black"/>
<path d="M8.88876 8.32584C8.88876 10.0491 8.88876 11.7724 8.88876 13.4956C8.88876 14.1741 8.85593 14.2103 8.17387 14.2067C7.51004 14.2031 6.84256 14.1922 6.17873 14.1704C5.89058 14.1596 5.81034 14.0906 5.79575 13.804C5.77022 13.3687 5.77751 12.9333 5.77751 12.4943C5.77751 11.7361 5.77751 10.9779 5.78481 10.216C5.78846 9.71171 5.81034 9.20743 5.80669 8.70314C5.80305 7.79253 5.78481 6.88192 5.77751 5.97131C5.77751 5.67019 5.78481 5.36907 5.82128 5.07158C5.83587 4.94823 5.89788 4.79949 5.98907 4.7233C6.46688 4.3206 6.95563 3.92878 7.45533 3.55148C7.80913 3.28664 8.18481 3.04719 8.5532 2.80775C8.78663 2.65538 8.85229 2.69166 8.85593 2.97101C8.87052 4.08478 8.88147 5.19856 8.88511 6.31234C8.88876 6.9835 8.88511 7.65104 8.88511 8.32221L8.88876 8.32584Z" fill="black"/>
<path d="M11.1866 18.0666C11.1866 17.7075 11.1866 17.3447 11.1866 16.9855C11.1866 16.6191 11.2158 16.5719 11.5733 16.5683C12.3648 16.5574 13.1563 16.5719 13.9477 16.5828C14.1556 16.5828 14.2578 16.6953 14.2578 16.913C14.2505 17.6059 14.2578 18.2988 14.2578 18.9881C14.2578 19.38 14.1921 19.4561 13.8018 19.5214C13.5648 19.5614 13.324 19.5722 13.0833 19.5976C12.7769 19.6339 12.4742 19.6847 12.1678 19.7065C11.9672 19.721 11.7593 19.721 11.5587 19.6883C11.2705 19.6412 11.1976 19.5541 11.1939 19.2639C11.183 18.8648 11.1939 18.4657 11.1939 18.0703L11.1866 18.0666Z" fill="black"/>
<path d="M17.2997 16.5285C17.8869 16.5285 18.4742 16.5285 19.0651 16.5285C19.4335 16.5285 19.4991 16.6228 19.4955 16.9856C19.4882 17.5878 19.5173 18.1864 19.5283 18.7887C19.5283 18.8794 19.5283 18.9701 19.5283 19.0608C19.5173 19.4816 19.3787 19.5396 18.9812 19.6557C18.2882 19.8589 17.6353 19.6557 16.9678 19.5723C16.7088 19.5396 16.6067 19.4272 16.6067 19.1696C16.6067 18.5855 16.614 18.0014 16.614 17.4137C16.614 17.2323 16.5958 17.0545 16.5848 16.8731C16.5739 16.6845 16.6505 16.572 16.8511 16.5575C17.0006 16.5466 17.1502 16.5285 17.3034 16.5176C17.3034 16.5212 17.3034 16.5248 17.3034 16.5321L17.2997 16.5285Z" fill="black"/>
<path d="M19.4589 22.9828C19.4808 23.4399 19.5137 23.897 19.5246 24.3542C19.5355 24.7532 19.4188 24.8258 19.0213 24.8149C18.4158 24.7968 17.8103 24.8149 17.2085 24.8149C17.1319 24.8149 17.0553 24.8258 16.9823 24.8149C16.6067 24.7677 16.6103 24.746 16.6103 24.365C16.6103 23.6975 16.5811 23.0263 16.5702 22.3588C16.5702 22.2463 16.5702 22.1339 16.5848 22.025C16.6067 21.8581 16.7088 21.7711 16.8766 21.7674C17.6097 21.7529 18.3428 21.7312 19.076 21.7275C19.4188 21.7275 19.4954 21.8219 19.4918 22.1665C19.4918 22.3008 19.4881 22.4386 19.4845 22.5728C19.4845 22.7071 19.4845 22.8449 19.4845 22.9792C19.4772 22.9792 19.4662 22.9792 19.4589 22.9792V22.9828Z" fill="black"/>
</g>
<path d="M47.708 24L44.45 10.86H47.24L49.058 19.158C49.118 19.446 49.19 19.812 49.274 20.256C49.37 20.7 49.442 21.078 49.49 21.39C49.538 21.078 49.598 20.7 49.67 20.256C49.742 19.812 49.808 19.44 49.868 19.14L51.632 10.86H54.35L51.128 24H47.708ZM60.211 24.18C59.335 24.18 58.567 24.018 57.907 23.694C57.259 23.358 56.755 22.896 56.395 22.308C56.047 21.708 55.873 21.012 55.873 20.22V17.88C55.873 17.088 56.047 16.398 56.395 15.81C56.755 15.21 57.259 14.748 57.907 14.424C58.567 14.088 59.335 13.92 60.211 13.92C61.087 13.92 61.843 14.088 62.479 14.424C63.127 14.748 63.625 15.21 63.973 15.81C64.333 16.398 64.513 17.088 64.513 17.88V19.68H58.447V20.22C58.447 20.844 58.597 21.318 58.897 21.642C59.197 21.954 59.647 22.11 60.247 22.11C60.667 22.11 61.003 22.038 61.255 21.894C61.519 21.75 61.693 21.552 61.777 21.3H64.423C64.207 22.164 63.715 22.86 62.947 23.388C62.191 23.916 61.279 24.18 60.211 24.18ZM61.939 18.294V17.844C61.939 17.232 61.795 16.764 61.507 16.44C61.231 16.116 60.799 15.954 60.211 15.954C59.623 15.954 59.179 16.122 58.879 16.458C58.591 16.794 58.447 17.268 58.447 17.88V18.15L62.119 18.114L61.939 18.294ZM66.7739 24V14.1H69.3839V15.99H70.1759L69.3839 16.62C69.3839 15.78 69.6239 15.12 70.1039 14.64C70.5839 14.16 71.2319 13.92 72.0479 13.92C73.0079 13.92 73.7759 14.256 74.3519 14.928C74.9399 15.6 75.2339 16.494 75.2339 17.61V24H72.5339V17.88C72.5339 17.364 72.3959 16.968 72.1199 16.692C71.8559 16.404 71.4779 16.26 70.9859 16.26C70.5059 16.26 70.1339 16.404 69.8699 16.692C69.6059 16.968 69.4739 17.364 69.4739 17.88V24H66.7739ZM81.7789 24.18C80.4469 24.18 79.4029 23.82 78.6469 23.1C77.9029 22.38 77.5309 21.396 77.5309 20.148V14.1H80.2309V20.13C80.2309 20.682 80.3629 21.108 80.6269 21.408C80.8909 21.696 81.2749 21.84 81.7789 21.84C82.2709 21.84 82.6489 21.696 82.9129 21.408C83.1889 21.108 83.3269 20.682 83.3269 20.13V14.1H86.0269V20.148C86.0269 21.408 85.6489 22.398 84.8929 23.118C84.1369 23.826 83.0989 24.18 81.7789 24.18ZM92.1579 24.18C91.3419 24.18 90.6279 24.054 90.0159 23.802C89.4039 23.538 88.9239 23.178 88.5759 22.722C88.2399 22.266 88.0719 21.732 88.0719 21.12H90.7719C90.7719 21.408 90.8979 21.642 91.1499 21.822C91.4139 21.99 91.7499 22.074 92.1579 22.074H92.9499C93.4419 22.074 93.8139 21.984 94.0659 21.804C94.3299 21.624 94.4619 21.372 94.4619 21.048C94.4619 20.748 94.3479 20.52 94.1199 20.364C93.8919 20.196 93.5379 20.082 93.0579 20.022L91.9059 19.878C90.6699 19.722 89.7699 19.422 89.2059 18.978C88.6419 18.534 88.3599 17.856 88.3599 16.944C88.3599 15.984 88.6899 15.24 89.3499 14.712C90.0099 14.184 90.9759 13.92 92.2479 13.92H92.9319C94.1439 13.92 95.1099 14.184 95.8299 14.712C96.5499 15.24 96.9099 15.948 96.9099 16.836H94.2099C94.2099 16.596 94.0899 16.404 93.8499 16.26C93.6219 16.104 93.3159 16.026 92.9319 16.026H92.2479C91.8039 16.026 91.4799 16.104 91.2759 16.26C91.0719 16.404 90.9699 16.626 90.9699 16.926C90.9699 17.202 91.0599 17.412 91.2399 17.556C91.4319 17.7 91.7319 17.802 92.1399 17.862L93.3819 18.024C94.6299 18.18 95.5539 18.492 96.1539 18.96C96.7659 19.428 97.0719 20.124 97.0719 21.048C97.0719 22.056 96.7239 22.83 96.0279 23.37C95.3319 23.91 94.3059 24.18 92.9499 24.18H92.1579ZM99.5848 24L98.1448 14.1H100.305L101.025 19.5C101.085 19.896 101.133 20.346 101.169 20.85C101.217 21.354 101.253 21.768 101.277 22.092C101.313 21.768 101.361 21.36 101.421 20.868C101.493 20.364 101.559 19.908 101.619 19.5L102.447 14.1H104.319L105.111 19.5C105.171 19.908 105.231 20.364 105.291 20.868C105.363 21.372 105.417 21.786 105.453 22.11C105.477 21.774 105.513 21.354 105.561 20.85C105.621 20.334 105.675 19.884 105.723 19.5L106.479 14.1H108.585L107.127 24H104.427L103.689 18.42C103.641 18.084 103.587 17.682 103.527 17.214C103.467 16.746 103.419 16.356 103.383 16.044C103.335 16.356 103.281 16.746 103.221 17.214C103.161 17.682 103.107 18.084 103.059 18.42L102.303 24H99.5848ZM112.88 24.18C111.884 24.18 111.092 23.91 110.504 23.37C109.928 22.83 109.64 22.098 109.64 21.174C109.64 20.178 109.982 19.416 110.666 18.888C111.362 18.348 112.358 18.078 113.654 18.078H115.706V17.34C115.706 16.956 115.568 16.65 115.292 16.422C115.028 16.194 114.668 16.08 114.212 16.08C113.792 16.08 113.444 16.176 113.168 16.368C112.892 16.56 112.724 16.824 112.664 17.16H110.054C110.162 16.164 110.594 15.378 111.35 14.802C112.118 14.214 113.102 13.92 114.302 13.92C115.562 13.92 116.558 14.232 117.29 14.856C118.034 15.468 118.406 16.296 118.406 17.34V24H115.796V22.38H115.364L115.814 21.75C115.814 22.494 115.544 23.088 115.004 23.532C114.476 23.964 113.768 24.18 112.88 24.18ZM113.888 22.2C114.416 22.2 114.848 22.062 115.184 21.786C115.532 21.498 115.706 21.126 115.706 20.67V19.608H113.708C113.3 19.608 112.97 19.728 112.718 19.968C112.466 20.196 112.34 20.502 112.34 20.886C112.34 21.294 112.478 21.618 112.754 21.858C113.03 22.086 113.408 22.2 113.888 22.2ZM120.739 27.24V14.1H123.349V15.99H123.979L123.349 16.62C123.349 15.768 123.583 15.108 124.051 14.64C124.519 14.16 125.161 13.92 125.977 13.92C126.973 13.92 127.771 14.274 128.371 14.982C128.971 15.678 129.271 16.614 129.271 17.79V20.31C129.271 21.09 129.133 21.774 128.857 22.362C128.593 22.938 128.215 23.388 127.723 23.712C127.231 24.024 126.649 24.18 125.977 24.18C125.161 24.18 124.519 23.946 124.051 23.478C123.583 22.998 123.349 22.332 123.349 21.48L123.979 22.11H123.349L123.439 24.54V27.24H120.739ZM125.005 21.84C125.509 21.84 125.893 21.702 126.157 21.426C126.433 21.138 126.571 20.736 126.571 20.22V17.88C126.571 17.352 126.433 16.95 126.157 16.674C125.893 16.398 125.509 16.26 125.005 16.26C124.513 16.26 124.129 16.404 123.853 16.692C123.577 16.968 123.439 17.364 123.439 17.88V20.22C123.439 20.736 123.577 21.138 123.853 21.426C124.129 21.702 124.513 21.84 125.005 21.84Z" fill="black"/>
<defs>
<clipPath id="clip0_92_2378">
<rect width="36" height="36" fill="white"/>
</clipPath>
</defs>
</svg>
