<svg width="36" height="36" viewBox="0 0 36 36" fill="none" xmlns="http://www.w3.org/2000/svg">
<g clip-path="url(#clip0_270_6186)">
<path d="M28.398 32.6185C28.3287 32.6729 28.263 32.731 28.1864 32.7781C27.7925 33.0248 27.3949 33.2715 26.9974 33.5146C26.7202 33.6815 26.4466 33.852 26.1621 34.0044C25.8959 34.1459 25.6259 34.2765 25.3487 34.3926C24.9512 34.5558 24.5463 34.7046 24.1451 34.8569C23.9591 34.9295 23.7694 34.9948 23.5797 35.0674C23.5032 35.0964 23.4266 35.1472 23.35 35.1581C22.5329 35.2669 21.7743 35.6442 20.9354 35.6551C20.5925 35.6587 20.2497 35.7676 19.9068 35.8329C18.5901 36.0832 17.2734 36.0288 15.9566 35.8401C15.4642 35.7676 14.9682 35.7095 14.4794 35.6224C14.1402 35.5608 13.8083 35.4556 13.4691 35.3721C13.3305 35.3395 13.1919 35.3177 13.0533 35.2742C12.7652 35.1871 12.4843 35.0928 12.1998 34.9984C12.1925 34.9984 12.1889 34.9876 12.1816 34.9876C11.7147 34.9549 11.3317 34.6828 10.905 34.5413C10.8758 34.5304 10.843 34.5377 10.8174 34.5232C10.4928 34.3527 10.1645 34.1858 9.84358 34.008C9.50437 33.823 9.1688 33.6271 8.83324 33.4348C8.79312 33.413 8.74935 33.3985 8.71288 33.3731C8.06364 32.9124 7.4071 32.4625 6.77245 31.9836C5.98461 31.385 5.26242 30.7138 4.64236 29.9375C4.08795 29.2445 3.53719 28.548 3.00467 27.8369C2.78218 27.5394 2.61804 27.202 2.43203 26.8791C2.2606 26.5889 2.07823 26.3023 1.92868 26.0012C1.75361 25.6529 1.60771 25.2901 1.45452 24.9309C1.41804 24.8402 1.42169 24.7277 1.37063 24.6516C1.13719 24.296 1.13719 23.8498 0.954822 23.5051C0.743272 23.1024 0.714093 22.6961 0.61926 22.2861C0.560901 22.0322 0.40771 21.8 0.371235 21.5461C0.305582 21.1071 0.305582 20.6608 0.254518 20.2219C0.196159 19.7212 0.0757947 19.2278 0.0356731 18.7308C-0.0299804 17.8746 -0.0190381 17.022 0.188865 16.1731C0.290992 15.7631 0.26546 15.3205 0.323819 14.896C0.360293 14.6167 0.436889 14.341 0.498895 14.0652C0.542664 13.8839 0.59008 13.7025 0.641144 13.5211C0.73233 13.2054 0.83081 12.8898 0.921995 12.5778C0.958469 12.4472 0.980354 12.313 1.03142 12.1896C1.23203 11.689 1.43628 11.1919 1.64783 10.6985C1.80467 10.3321 1.96151 9.96931 2.14388 9.6174C2.31166 9.29089 2.50862 8.97888 2.70193 8.66688C2.84783 8.43107 3.00102 8.19888 3.16516 7.97395C3.21622 7.90139 3.30741 7.85785 3.38035 7.7998C3.41683 7.8905 3.48613 7.9812 3.48613 8.0719C3.47883 9.42875 3.4606 10.782 3.4533 12.1388C3.44601 13.1038 3.4533 14.0652 3.44601 15.0303C3.44601 15.4656 3.63203 15.8538 3.93841 16.1078C4.17184 16.3037 4.54388 16.4125 4.85756 16.4234C5.73294 16.4524 6.61197 16.4053 7.48735 16.4016C7.85573 16.4016 8.22777 16.427 8.59616 16.4524C8.77488 16.4633 8.86242 16.5794 8.86242 16.7608C8.86242 17.1599 8.86242 17.559 8.86242 17.958C8.86242 18.8541 8.87701 19.7502 8.86242 20.6463C8.85513 21.0853 9.12139 21.3719 9.39859 21.6186C9.54814 21.7528 9.83993 21.7637 10.0697 21.7674C10.7408 21.7746 11.4156 21.7383 12.0904 21.7383C12.6922 21.7383 13.2977 21.7601 13.8995 21.771C14.1111 21.7746 14.2132 21.898 14.2387 22.0939C14.2533 22.1991 14.2569 22.3043 14.2606 22.4095C14.2606 23.5922 14.2606 24.7749 14.2606 25.9576C14.2606 26.3386 14.3408 26.6832 14.68 26.9009C14.8259 26.9952 15.001 27.1004 15.1615 27.104C16.4308 27.1222 17.7038 27.1149 18.9731 27.1149C19.0351 27.1149 19.0934 27.1149 19.1554 27.1149C19.429 27.1222 19.4837 27.1802 19.4837 27.4523C19.4837 28.4899 19.4837 29.5311 19.4837 30.5687C19.4837 31.044 19.5275 31.512 19.7828 31.9147C20.0089 32.2702 20.37 32.4734 20.8004 32.4843C21.1177 32.4915 21.4351 32.4516 21.7524 32.4516C23.2223 32.4444 24.6886 32.4371 26.1585 32.4444C26.8223 32.4444 27.4898 32.4698 28.1536 32.4915C28.2339 32.4915 28.3141 32.5314 28.3943 32.5532C28.3943 32.5786 28.3943 32.604 28.3943 32.6294L28.398 32.6185Z" fill="#14F194"/>
<path d="M21.8083 7.44441C21.8083 5.32932 21.8083 3.21423 21.8083 1.09552C21.8083 0.6384 21.9178 0.554957 22.3554 0.671051C22.9208 0.819796 23.4971 0.946774 24.0551 1.12454C24.4673 1.25515 24.8612 1.45106 25.2661 1.61794C25.3354 1.64697 25.401 1.68324 25.4703 1.7159C26.0612 2.00613 26.6849 2.25283 27.2357 2.60474C28.0126 3.10177 28.7457 3.67135 29.4861 4.2228C29.8363 4.48401 30.1755 4.76336 30.4855 5.07174C30.9159 5.49258 31.3244 5.93518 31.7184 6.38868C32.0576 6.78049 32.3713 7.19408 32.6703 7.61855C32.995 8.07929 33.2904 8.55818 33.5858 9.03707C33.7573 9.31279 33.9178 9.59214 34.0564 9.88238C34.2825 10.354 34.4904 10.8365 34.7056 11.3118C34.753 11.4134 34.815 11.5113 34.8478 11.6165C34.9244 11.856 34.9573 12.1172 35.063 12.3421C35.2892 12.8174 35.3913 13.3217 35.5007 13.8296C35.5773 14.1779 35.5445 14.2432 35.1761 14.254C34.4722 14.2758 33.7682 14.2939 33.0643 14.2939C29.8327 14.3012 26.601 14.3048 23.3694 14.3012C22.9755 14.3012 22.5816 14.2831 22.1913 14.254C21.8594 14.2286 21.8047 14.1633 21.8047 13.8296C21.8047 11.7 21.8047 9.56675 21.8047 7.43715L21.8083 7.44441Z" fill="#14F194"/>
<path d="M21.8063 17.9801C21.8063 17.6173 21.8063 17.2581 21.8063 16.8953C21.8063 16.6885 21.9084 16.5797 22.1054 16.576C23.0793 16.5652 24.0568 16.5615 25.0306 16.5543C25.6434 16.5506 26.2562 16.5325 26.8689 16.5325C28.6525 16.5289 30.4397 16.5253 32.227 16.5325C33.1242 16.5325 34.0252 16.5543 34.9224 16.5652C35.1777 16.5652 35.4331 16.5579 35.6884 16.5724C35.8635 16.5797 35.9729 16.6921 35.9765 16.8663C35.9911 17.6245 36.0093 18.3828 35.9948 19.141C35.9911 19.4095 35.7504 19.5836 35.5133 19.6416C34.8787 19.794 34.2404 19.7759 33.5984 19.7323C33.1862 19.7033 32.7741 19.6344 32.3619 19.6054C31.9571 19.5763 31.5522 19.5655 31.1437 19.5582C30.509 19.551 29.8707 19.5292 29.2361 19.5582C28.5978 19.5909 27.9631 19.7215 27.3285 19.736C26.6683 19.7505 26.0045 19.6779 25.3443 19.6453C24.9321 19.6235 24.52 19.6017 24.1042 19.5836C23.4403 19.5546 22.7765 19.5328 22.1127 19.4965C21.8756 19.482 21.81 19.297 21.8063 19.0902C21.8027 18.7202 21.8063 18.3537 21.8063 17.9837V17.9801Z" fill="#14F194"/>
<path d="M21.8024 23.3169C21.8024 22.9541 21.7988 22.5949 21.8024 22.2321C21.8097 21.8802 21.9191 21.7714 22.2656 21.7641C22.9295 21.7496 23.5969 21.7315 24.2608 21.7278C25.2273 21.7206 26.1939 21.7278 27.1641 21.7278C28.7361 21.7278 30.3082 21.7278 31.8839 21.7278C32.6863 21.7278 33.4851 21.7206 34.2875 21.7278C34.5902 21.7278 34.893 21.7605 35.1921 21.7677C35.3817 21.775 35.4912 21.8802 35.4656 22.0507C35.4109 22.4425 35.3307 22.8307 35.2431 23.2189C35.1957 23.4221 35.1155 23.618 35.0425 23.8139C34.9404 24.086 34.8456 24.3617 34.7252 24.6266C34.645 24.8043 34.4808 24.8442 34.2875 24.8406C32.4565 24.8225 30.6255 24.8007 28.7945 24.7971C26.6753 24.7898 24.5562 24.7971 22.4371 24.8043C21.8097 24.8043 21.8024 24.8007 21.8024 24.1839C21.8024 23.8973 21.8024 23.6107 21.8024 23.3241V23.3169Z" fill="#14F194"/>
<path d="M16.619 6.83184C16.619 5.15211 16.619 3.476 16.619 1.79627C16.619 1.41171 16.5898 1.03078 16.5826 0.646215C16.5753 0.258026 16.6409 0.185468 17.0239 0.14556C17.5126 0.0947694 18.0014 0.0185828 18.4901 0.000443083C18.7455 -0.00681279 19.0081 0.0766297 19.267 0.134677C19.4531 0.174584 19.5151 0.326957 19.5187 0.493842C19.526 0.816728 19.5224 1.13961 19.5187 1.45887C19.5114 2.27153 19.4932 3.08419 19.4932 3.89685C19.4932 7.05678 19.4932 10.2203 19.4968 13.3803C19.4968 13.5907 19.4968 13.8011 19.4968 14.0115C19.4968 14.1675 19.4057 14.251 19.2561 14.2546C18.4865 14.2691 17.7133 14.2909 16.9436 14.2836C16.6227 14.2836 16.5862 14.2074 16.5862 13.8446C16.5862 11.5083 16.5862 9.16823 16.5862 6.83184C16.6008 6.83184 16.6117 6.83184 16.6263 6.83184H16.619Z" fill="#14F194"/>
<path d="M14.2595 7.45514C14.2595 9.56297 14.2595 11.6708 14.2595 13.7786C14.2595 14.2249 14.234 14.2539 13.7817 14.2611C13.0267 14.272 12.268 14.272 11.513 14.2793C11.2905 14.2793 11.1957 14.1777 11.1993 13.9637C11.1993 13.5501 11.1993 13.1365 11.1993 12.7229C11.1993 9.97655 11.1993 7.22658 11.1993 4.48023C11.1993 3.56236 11.2103 2.6445 11.2066 1.72663C11.2066 1.52709 11.2796 1.40011 11.4765 1.33844C11.8267 1.22597 12.1695 1.09174 12.5233 0.986529C12.9173 0.866807 13.3185 0.765225 13.716 0.656387C14.1173 0.547549 14.2522 0.652759 14.2559 1.05909C14.2559 3.18869 14.2559 5.32191 14.2559 7.45151H14.2595V7.45514Z" fill="#14F194"/>
<path d="M26.5951 30.1991C25.5118 30.1991 24.4322 30.1991 23.3489 30.1991C22.9477 30.1991 22.5465 30.1846 22.1453 30.1665C21.8535 30.152 21.8024 30.0975 21.8024 29.8109C21.8024 29.0745 21.7988 28.3344 21.8024 27.5979C21.8024 27.1879 21.8535 27.1408 22.2547 27.1371C23.9872 27.1263 25.7197 27.1117 27.4522 27.1081C28.572 27.1081 29.6918 27.1299 30.8115 27.1335C31.4863 27.1335 32.1574 27.1154 32.8322 27.1045C32.9161 27.1045 33 27.1045 33.0802 27.1117C33.4158 27.1444 33.4267 27.1662 33.2443 27.4419C32.8395 28.0514 32.4419 28.6681 32.0188 29.2631C31.8109 29.5533 31.5592 29.8182 31.3039 30.0685C31.2273 30.1447 31.0705 30.1665 30.9501 30.1665C29.7793 30.1774 28.6048 30.1774 27.4304 30.1774C27.1495 30.1774 26.8687 30.1774 26.5915 30.1774C26.5915 30.1846 26.5915 30.1882 26.5915 30.1955L26.5951 30.1991Z" fill="#14F194"/>
<path d="M8.88955 8.32584C8.88955 10.0491 8.88955 11.7724 8.88955 13.4956C8.88955 14.1741 8.85673 14.2103 8.17466 14.2067C7.51083 14.2031 6.84335 14.1922 6.17952 14.1704C5.89138 14.1596 5.81114 14.0906 5.79655 13.804C5.77101 13.3687 5.77831 12.9333 5.77831 12.4943C5.77831 11.7361 5.77831 10.9779 5.7856 10.216C5.78925 9.71171 5.81114 9.20743 5.80749 8.70314C5.80384 7.79253 5.7856 6.88192 5.77831 5.97131C5.77831 5.67019 5.7856 5.36907 5.82208 5.07158C5.83667 4.94823 5.89867 4.79949 5.98986 4.7233C6.46767 4.3206 6.95642 3.92878 7.45612 3.55148C7.80992 3.28664 8.1856 3.04719 8.55399 2.80775C8.78743 2.65538 8.85308 2.69166 8.85673 2.97101C8.87132 4.08478 8.88226 5.19856 8.88591 6.31234C8.88955 6.9835 8.88591 7.65104 8.88591 8.32221L8.88955 8.32584Z" fill="#14F194"/>
<path d="M11.1875 18.0666C11.1875 17.7075 11.1875 17.3447 11.1875 16.9855C11.1875 16.6191 11.2167 16.5719 11.5741 16.5683C12.3656 16.5574 13.1571 16.5719 13.9486 16.5828C14.1565 16.5828 14.2586 16.6953 14.2586 16.913C14.2513 17.6059 14.2586 18.2988 14.2586 18.9881C14.2586 19.38 14.193 19.4561 13.8027 19.5214C13.5656 19.5614 13.3249 19.5722 13.0842 19.5976C12.7778 19.6339 12.475 19.6847 12.1687 19.7065C11.968 19.721 11.7601 19.721 11.5595 19.6883C11.2714 19.6412 11.1984 19.5541 11.1948 19.2639C11.1839 18.8648 11.1948 18.4657 11.1948 18.0703L11.1875 18.0666Z" fill="#14F194"/>
<path d="M17.2979 16.5285C17.8852 16.5285 18.4724 16.5285 19.0633 16.5285C19.4317 16.5285 19.4973 16.6228 19.4937 16.9856C19.4864 17.5878 19.5156 18.1864 19.5265 18.7887C19.5265 18.8794 19.5265 18.9701 19.5265 19.0608C19.5156 19.4816 19.377 19.5396 18.9794 19.6557C18.2864 19.8589 17.6335 19.6557 16.966 19.5723C16.7071 19.5396 16.6049 19.4272 16.6049 19.1696C16.6049 18.5855 16.6122 18.0014 16.6122 17.4137C16.6122 17.2323 16.594 17.0545 16.583 16.8731C16.5721 16.6845 16.6487 16.572 16.8493 16.5575C16.9989 16.5466 17.1484 16.5285 17.3016 16.5176C17.3016 16.5212 17.3016 16.5248 17.3016 16.5321L17.2979 16.5285Z" fill="#14F194"/>
<path d="M19.4591 22.9828C19.481 23.4399 19.5138 23.897 19.5247 24.3542C19.5357 24.7532 19.4189 24.8258 19.0214 24.8149C18.4159 24.7968 17.8104 24.8149 17.2086 24.8149C17.132 24.8149 17.0554 24.8258 16.9825 24.8149C16.6068 24.7677 16.6104 24.746 16.6104 24.365C16.6104 23.6975 16.5813 23.0263 16.5703 22.3588C16.5703 22.2463 16.5703 22.1339 16.5849 22.025C16.6068 21.8581 16.7089 21.7711 16.8767 21.7674C17.6098 21.7529 18.343 21.7312 19.0761 21.7275C19.4189 21.7275 19.4955 21.8219 19.4919 22.1665C19.4919 22.3008 19.4882 22.4386 19.4846 22.5728C19.4846 22.7071 19.4846 22.8449 19.4846 22.9792C19.4773 22.9792 19.4664 22.9792 19.4591 22.9792V22.9828Z" fill="#14F194"/>
</g>
<defs>
<clipPath id="clip0_270_6186">
<rect width="36" height="36" fill="white"/>
</clipPath>
</defs>
</svg>
