<svg width="1292" height="314" viewBox="0 0 1292 314" fill="none" xmlns="http://www.w3.org/2000/svg">
<g filter="url(#filter0_bi_173_1267)">
<path d="M48.5807 0.5H1232.61C1235.01 0.5 1237.33 1.34263 1239.16 2.88055L1287.34 43.1697C1289.66 45.1115 1291 47.9827 1291 51.0095V265.774C1291 268.918 1289.55 271.888 1287.07 273.825L1239.1 311.331C1237.3 312.737 1235.09 313.5 1232.81 313.5H48.3686C45.6986 313.5 43.1347 312.455 41.2252 310.589L3.577 273.797C1.60929 271.874 0.5 269.238 0.5 266.487V50.3016C0.5 47.6696 1.51539 45.1391 3.33469 43.2371L41.195 3.65581C43.1231 1.64009 45.7913 0.5 48.5807 0.5Z" stroke="url(#paint0_linear_173_1267)"/>
</g>
<defs>
<filter id="filter0_bi_173_1267" x="-17.8672" y="-17.8672" width="1327.23" height="349.734" filterUnits="userSpaceOnUse" color-interpolation-filters="sRGB">
<feFlood flood-opacity="0" result="BackgroundImageFix"/>
<feGaussianBlur in="BackgroundImageFix" stdDeviation="8.9336"/>
<feComposite in2="SourceAlpha" operator="in" result="effect1_backgroundBlur_173_1267"/>
<feBlend mode="normal" in="SourceGraphic" in2="effect1_backgroundBlur_173_1267" result="shape"/>
<feColorMatrix in="SourceAlpha" type="matrix" values="0 0 0 0 0 0 0 0 0 0 0 0 0 0 0 0 0 0 127 0" result="hardAlpha"/>
<feOffset/>
<feGaussianBlur stdDeviation="1.78672"/>
<feComposite in2="hardAlpha" operator="arithmetic" k2="-1" k3="1"/>
<feColorMatrix type="matrix" values="0 0 0 0 1 0 0 0 0 0.937667 0 0 0 0 0.716667 0 0 0 0.25 0"/>
<feBlend mode="normal" in2="shape" result="effect2_innerShadow_173_1267"/>
</filter>
<linearGradient id="paint0_linear_173_1267" x1="132.086" y1="-23.0071" x2="315.067" y2="626.203" gradientUnits="userSpaceOnUse">
<stop offset="0.3125" stop-color="#14F194"/>
<stop offset="1" stop-color="#0702FF" stop-opacity="0.4"/>
</linearGradient>
</defs>
</svg>
