<svg width="46" height="47" viewBox="0 0 46 47" fill="none" xmlns="http://www.w3.org/2000/svg">
<path d="M46 8.49862C44.2894 9.26154 42.4666 9.76723 40.5662 10.0128C42.5212 8.826 44.0134 6.96108 44.7149 4.71323C42.8921 5.81815 40.8796 6.59862 38.7349 7.03415C37.0041 5.16046 34.5374 4 31.8464 4C26.6254 4 22.4221 8.30862 22.4221 13.5906C22.4221 14.3506 22.4854 15.0814 22.6406 15.7771C14.8005 15.3883 7.86312 11.5678 3.20275 5.748C2.38912 7.18323 1.91188 8.826 1.91188 10.5945C1.91188 13.9151 3.59375 16.8586 6.10075 18.5628C4.58562 18.5335 3.09925 18.0863 1.84 17.3818C1.84 17.4111 1.84 17.4491 1.84 17.4871C1.84 22.1465 5.10887 26.0166 9.3955 26.9082C8.62787 27.1215 7.79125 27.2238 6.923 27.2238C6.31925 27.2238 5.70975 27.1888 5.13762 27.0602C6.3595 30.8572 9.82675 33.6488 13.9495 33.7394C10.741 36.2912 6.66713 37.8288 2.25688 37.8288C1.4835 37.8288 0.74175 37.7937 0 37.6972C4.17737 40.4362 9.12813 42 14.467 42C31.8205 42 41.308 27.3846 41.308 14.716C41.308 14.2922 41.2936 13.8829 41.2735 13.4766C43.1451 12.1262 44.7178 10.4395 46 8.49862Z" fill="white"/>
</svg>
