<svg width="24" height="24" viewBox="0 0 24 24" fill="none" xmlns="http://www.w3.org/2000/svg">
<g clip-path="url(#clip0_45_2246)">
<path fill-rule="evenodd" clip-rule="evenodd" d="M9.49511 0.78013C9.4868 0.817846 9.48242 0.857037 9.48242 0.897251V9.6193H7.49611V1.47944C7.49611 1.45984 7.49507 1.44048 7.49304 1.42141C8.13269 1.14915 8.80213 0.933311 9.49511 0.78013ZM6.05776 9.6193V2.15598C5.34066 2.58928 4.67481 3.09886 4.07147 3.67348V9.07771C4.07147 9.37682 4.31395 9.6193 4.61307 9.6193H6.05776ZM2.63313 5.33169V10.5161C2.63313 10.8152 2.87561 11.0576 3.17472 11.0576H6.05776V13.9407C6.05776 14.2398 6.30024 14.4823 6.59936 14.4823H9.48242V17.3653C9.48242 17.6644 9.7249 17.9069 10.024 17.9069H12.907V20.79C12.907 21.0891 13.1495 21.3316 13.4486 21.3316H18.6331C16.7571 22.6685 14.4616 23.4548 11.9824 23.4548C5.64631 23.4548 0.509888 18.3184 0.509888 11.9823C0.509888 9.50316 1.29624 7.20769 2.63313 5.33169ZM7.49611 11.0576H9.48242V13.0439H8.0377C7.73859 13.0439 7.49611 12.8015 7.49611 12.5023V11.0576ZM10.9208 11.0576V13.0439H12.907V11.0576H10.9208ZM14.3454 11.0576V13.0439H23.4065C23.4386 12.6944 23.4549 12.3402 23.4549 11.9823C23.4549 11.671 23.4425 11.3626 23.4182 11.0576C23.4154 11.0576 23.4127 11.0576 23.4099 11.0576H14.3454ZM23.2113 9.6193H14.3454V0.75337C18.7853 1.68297 22.2817 5.17941 23.2113 9.6193ZM12.907 9.6193H10.9208V0.89725C10.9208 0.773817 10.8795 0.660028 10.8099 0.568943C11.1954 0.529811 11.5866 0.509766 11.9824 0.509766C12.2942 0.509766 12.6031 0.522205 12.9087 0.546615C12.9076 0.560613 12.907 0.574761 12.907 0.589038V9.6193ZM12.907 14.4823H10.9208V15.927C10.9208 16.2261 11.1632 16.4686 11.4624 16.4686H12.907V14.4823ZM14.3454 16.4686V14.4823H23.1818C23.029 15.1696 22.8146 15.8338 22.5446 16.4686H14.3454ZM14.3454 17.9069V19.3516C14.3454 19.6507 14.5878 19.8932 14.887 19.8932H20.2913C20.8659 19.2899 21.3755 18.624 21.8088 17.9069H14.3454Z" fill="black"/>
</g>
<defs>
<clipPath id="clip0_45_2246">
<rect width="24" height="24" fill="white"/>
</clipPath>
</defs>
</svg>
