<svg width="28" height="28" viewBox="0 0 28 28" fill="none" xmlns="http://www.w3.org/2000/svg">
<path d="M2.14072 9.32324H0.822754C0.369723 9.32324 0.00244141 9.69052 0.00244141 10.1436C0.00244141 10.5966 0.369723 10.9639 0.822754 10.9639H2.14072C3.22731 10.9238 3.22769 9.36344 2.14072 9.32324Z" fill="#0CC697"/>
<path d="M27.1825 9.32324H25.8645C25.4115 9.32324 25.0442 9.69052 25.0442 10.1436C25.0442 10.5966 25.4115 10.9639 25.8645 10.9639H27.1825C28.2691 10.9238 28.2694 9.36344 27.1825 9.32324Z" fill="#0CC697"/>
<path d="M5.03488 2.33604C5.83146 3.07607 6.93527 1.97303 6.19497 1.17596L5.26315 0.244135C4.94284 -0.0761699 4.42342 -0.0761699 4.10306 0.244135C3.7827 0.564439 3.7827 1.08386 4.10306 1.40422L5.03488 2.33604Z" fill="#0CC697"/>
<path d="M22.9703 17.9513C22.1737 17.2113 21.07 18.3144 21.8102 19.1114L22.7421 20.0432C23.0623 20.3634 23.5817 20.3637 23.9022 20.0432C24.2225 19.7229 24.2225 19.2035 23.9022 18.8831L22.9703 17.9513Z" fill="#0CC697"/>
<path d="M5.03488 17.9513L4.10306 18.8832C3.7827 19.2035 3.7827 19.7229 4.10306 20.0432C4.42331 20.3635 4.94268 20.3637 5.26315 20.0432L6.19497 19.1114C6.93506 18.3148 5.83184 17.2111 5.03488 17.9513Z" fill="#0CC697"/>
<path d="M22.7422 0.244283L21.8103 1.1761C21.49 1.49641 21.49 2.01583 21.8103 2.33619C22.1306 2.65644 22.65 2.65666 22.9704 2.33619L23.9022 1.40437C24.6423 0.607736 23.5392 -0.495858 22.7422 0.244283Z" fill="#0CC697"/>
<path d="M17.8571 10.9646L16.31 12.5117C17.1725 14.1799 15.8892 16.2618 14.0026 16.2365C12.5813 16.2365 11.425 15.0803 11.425 13.6589C11.3999 11.7724 13.4816 10.4889 15.1499 11.3516L16.9372 9.56417C17.091 9.41033 17.2997 9.32387 17.5172 9.32387H23.1331C21.8618 -1.7331 6.13931 -1.725 4.87207 9.32387H10.1482L11.6953 7.77679C10.8328 6.10857 12.116 4.02669 14.0027 4.0519C15.424 4.0519 16.5803 5.20824 16.5803 6.62953C16.6054 8.51601 14.5237 9.79955 12.8554 8.93684L11.0681 10.7242C10.9143 10.8781 10.7056 10.9645 10.488 10.9645H4.87267C5.07945 13.2561 6.14571 15.3939 7.87075 16.9258C8.81019 17.7942 9.41958 18.9611 9.6064 20.2137C9.60842 20.2134 18.3958 20.2134 18.3989 20.2137C18.5856 18.9614 19.195 17.7943 20.1346 16.9258C21.8596 15.3939 22.9259 13.2561 23.1327 10.9645H17.8571V10.9646Z" fill="#0CC697"/>
<path d="M9.66772 22.7905C9.66772 24.9004 11.1831 26.662 13.1824 27.0466C13.1008 28.3176 14.9049 28.3169 14.823 27.0466C16.8223 26.662 18.3377 24.9004 18.3377 22.7905V21.8535H9.66772V22.7905Z" fill="#0CC697"/>
<path d="M14.9397 6.6294C14.9397 6.11277 14.5193 5.69238 14.0027 5.69238C12.7613 5.73952 12.7616 7.51944 14.0027 7.56641C14.5193 7.56636 14.9397 7.14603 14.9397 6.6294Z" fill="#0CC697"/>
<path d="M13.0657 13.6586C13.0657 14.1753 13.4861 14.5957 14.0027 14.5957C15.244 14.5485 15.2437 12.7686 14.0027 12.7217C13.4861 12.7217 13.0657 13.142 13.0657 13.6586Z" fill="#0CC697"/>
</svg>
