<svg width="43" height="43" viewBox="0 0 43 43" fill="none" xmlns="http://www.w3.org/2000/svg">
<rect width="42.8813" height="42.8813" rx="21.4406" fill="#1E1E1E"/>
<g clip-path="url(#clip0_78_4571)">
<path d="M20.6203 9.36328C17.4582 9.54479 14.4928 10.7736 12.1259 12.883L15.7864 16.5436C17.164 15.3967 18.8367 14.7037 20.6203 14.5407V9.36328Z" fill="#14F194"/>
<path d="M14.626 17.7035L10.9655 14.043C8.85421 16.4092 7.62391 19.3748 7.44125 22.5377H12.6189C12.783 20.7538 13.4775 19.0809 14.626 17.7035Z" fill="#14F194"/>
<path d="M30.2624 22.5377H35.44C35.2574 19.3748 34.0271 16.4092 31.9158 14.043L28.2553 17.7035C29.4038 19.0809 30.0983 20.7538 30.2624 22.5377Z" fill="#14F194"/>
<path d="M30.2613 24.1777C30.1462 25.4412 29.7857 26.495 29.3592 27.3403C29.7752 27.9819 30.1221 28.524 30.3512 28.8841C30.9752 29.8647 30.8371 31.1235 30.0152 31.9454C29.8157 32.145 29.5877 32.3058 29.3407 32.4246L30.1932 33.2772C30.3537 33.4376 30.564 33.5179 30.7743 33.5179C30.9846 33.5179 31.1949 33.4376 31.3553 33.2772C33.8121 30.8207 35.2446 27.6152 35.4407 24.1777H30.2613Z" fill="#14F194"/>
<path d="M12.6201 24.1777H7.44064C7.6367 27.6152 9.06924 30.8207 11.526 33.2772C11.6864 33.4377 11.8967 33.5179 12.107 33.5179C12.3172 33.5179 12.5276 33.4376 12.688 33.2772L15.177 30.7881C15.4978 30.4672 15.4978 29.9469 15.177 29.626C14.5274 28.9765 12.8913 27.158 12.6201 24.1777Z" fill="#14F194"/>
<path d="M30.7554 12.883C28.3885 10.7735 25.4231 9.54479 22.261 9.36328V14.5407C24.0445 14.7037 25.7173 15.3967 27.0948 16.5436L30.7554 12.883Z" fill="#14F194"/>
<path d="M23.2634 21.5487C22.2584 20.5437 20.6231 20.5437 19.6181 21.5487C18.6131 22.5537 18.6131 24.1889 19.6181 25.1939C20.8877 26.4635 27.1273 30.4475 27.8346 30.8976C28.159 31.104 28.5832 31.0575 28.8551 30.7856C29.127 30.5138 29.1736 30.0895 28.9671 29.7651C28.517 29.0579 24.533 22.8182 23.2634 21.5487Z" fill="#14F194"/>
</g>
<defs>
<clipPath id="clip0_78_4571">
<rect width="28" height="28" fill="white" transform="translate(7.44064 7.44043)"/>
</clipPath>
</defs>
</svg>
