<svg width="30" height="30" viewBox="0 0 30 30" fill="none" xmlns="http://www.w3.org/2000/svg">
<g clip-path="url(#clip0_270_5159)">
<path d="M10.2344 10.2346C15.6881 10.2346 19.7631 8.07869 19.7631 6.15095C19.7631 4.22339 15.688 2.06738 10.2344 2.06738C4.78085 2.06738 0.705811 4.22339 0.705811 6.15095C0.705811 8.07869 4.78076 10.2346 10.2344 10.2346Z" fill="#14F194"/>
<path d="M10.2344 26.57C11.0304 26.57 11.7966 26.5238 12.5253 26.4394C11.911 25.65 11.403 24.7739 11.0224 23.8331C10.7609 23.8419 10.4985 23.8479 10.2343 23.8479C7.11812 23.8479 4.16701 23.2305 1.92486 22.1093C1.48339 21.8886 1.07713 21.6514 0.705811 21.4004V22.4865C0.705811 24.414 4.78076 26.57 10.2344 26.57Z" fill="#14F194"/>
<path d="M10.2345 21.1247C10.2625 21.1247 10.29 21.1243 10.3178 21.1242C10.262 20.678 10.2329 20.2235 10.2329 19.7625C10.2329 19.3016 10.2619 18.8474 10.3178 18.4015C10.29 18.4015 10.2624 18.4025 10.2345 18.4025C7.1183 18.4025 4.16728 17.7851 1.92505 16.6639C1.48348 16.4432 1.07713 16.206 0.705811 15.9551V17.0411C0.705901 18.9687 4.78085 21.1247 10.2345 21.1247Z" fill="#14F194"/>
<path d="M10.2345 15.6793C10.5046 15.6793 10.7711 15.6739 11.0342 15.6635C11.4568 14.6267 12.0344 13.6691 12.7385 12.8198C11.9233 12.9097 11.0854 12.9573 10.2345 12.9573C7.1183 12.9573 4.16728 12.3398 1.92505 11.2187C1.48348 10.9979 1.07713 10.7608 0.705811 10.5098V11.5958C0.705901 13.5235 4.78085 15.6793 10.2345 15.6793Z" fill="#14F194"/>
<path d="M14.3188 15.25C13.7298 16.1356 13.3089 17.1421 13.1019 18.2236C13.0063 18.7222 12.9558 19.2365 12.9558 19.7625C12.9558 20.158 12.9847 20.5468 13.0392 20.9274C13.1733 21.8624 13.4662 22.7464 13.8897 23.5517C14.3341 24.3968 14.9219 25.1552 15.6211 25.7937C17.0741 27.1208 19.0064 27.9313 21.1246 27.9313C25.6288 27.9313 29.2934 24.2668 29.2934 19.7625C29.2934 15.2582 25.6288 11.5938 21.1246 11.5938C20.6591 11.5938 20.2026 11.6335 19.758 11.7087C17.4937 12.0916 15.5433 13.4094 14.3188 15.25Z" fill="#14F194"/>
</g>
<defs>
<clipPath id="clip0_270_5159">
<rect width="28.5875" height="28.5875" fill="white" transform="translate(0.706299 0.706055)"/>
</clipPath>
</defs>
</svg>
