<svg width="43" height="43" viewBox="0 0 43 43" fill="none" xmlns="http://www.w3.org/2000/svg">
<rect width="42.8813" height="42.8813" rx="21.4406" fill="#1E1E1E"/>
<g clip-path="url(#clip0_78_4532)">
<path d="M9.58128 16.7637H8.26331C7.81028 16.7637 7.443 17.131 7.443 17.584C7.443 18.037 7.81028 18.4043 8.26331 18.4043H9.58128C10.6679 18.3643 10.6682 16.8039 9.58128 16.7637Z" fill="#14F194"/>
<path d="M34.6231 16.7637H33.3052C32.8521 16.7637 32.4848 17.131 32.4848 17.584C32.4848 18.037 32.8521 18.4043 33.3052 18.4043H34.6231C35.7098 18.3643 35.7101 16.8039 34.6231 16.7637Z" fill="#14F194"/>
<path d="M12.4755 9.77647C13.2721 10.5165 14.3759 9.41346 13.6356 8.61638L12.7038 7.68456C12.3835 7.36426 11.8641 7.36426 11.5437 7.68456C11.2233 8.00487 11.2233 8.52429 11.5437 8.84465L12.4755 9.77647Z" fill="#14F194"/>
<path d="M30.411 25.3917C29.6143 24.6517 28.5106 25.7548 29.2509 26.5518L30.1827 27.4836C30.503 27.8039 31.0223 27.8041 31.3428 27.4836C31.6632 27.1633 31.6632 26.6439 31.3428 26.3235L30.411 25.3917Z" fill="#14F194"/>
<path d="M12.4755 25.3918L11.5437 26.3236C11.2233 26.6439 11.2233 27.1633 11.5437 27.4837C11.8639 27.8039 12.3833 27.8041 12.7038 27.4837L13.6356 26.5519C14.3757 25.7552 13.2725 24.6516 12.4755 25.3918Z" fill="#14F194"/>
<path d="M30.1827 7.68471L29.2509 8.61653C28.9305 8.93684 28.9305 9.45626 29.2509 9.77662C29.5711 10.0969 30.0905 10.0971 30.411 9.77662L31.3428 8.8448C32.0829 8.04817 30.9797 6.94457 30.1827 7.68471Z" fill="#14F194"/>
<path d="M25.2977 18.405L23.7506 19.9521C24.6131 21.6204 23.3298 23.7022 21.4432 23.677C20.0219 23.677 18.8656 22.5207 18.8656 21.0993C18.8405 19.2129 20.9222 17.9293 22.5905 18.792L24.3778 17.0046C24.5316 16.8508 24.7403 16.7643 24.9579 16.7643H30.5737C29.3024 5.70733 13.5799 5.71543 12.3127 16.7643H17.5888L19.1359 15.2172C18.2734 13.549 19.5567 11.4671 21.4433 11.4923C22.8646 11.4923 24.0209 12.6487 24.0209 14.07C24.046 15.9564 21.9643 17.24 20.296 16.3773L18.5087 18.1647C18.3549 18.3185 18.1462 18.405 17.9286 18.405H12.3133C12.5201 20.6966 13.5863 22.8343 15.3114 24.3663C16.2508 25.2347 16.8602 26.4016 17.047 27.6541C17.049 27.6539 25.8364 27.6539 25.8395 27.6541C26.0262 26.4018 26.6356 25.2348 27.5752 24.3663C29.3002 22.8343 30.3665 20.6966 30.5733 18.405H25.2977V18.405Z" fill="#14F194"/>
<path d="M17.1083 30.231C17.1083 32.3408 18.6237 34.1024 20.623 34.4871C20.5414 35.7581 22.3455 35.7573 22.2636 34.4871C24.2629 34.1024 25.7783 32.3408 25.7783 30.231V29.2939H17.1083V30.231Z" fill="#14F194"/>
<path d="M22.3802 14.0698C22.3802 13.5532 21.9599 13.1328 21.4432 13.1328C20.2019 13.18 20.2022 14.9599 21.4432 15.0068C21.9599 15.0068 22.3802 14.5865 22.3802 14.0698Z" fill="#14F194"/>
<path d="M20.5062 21.0991C20.5062 21.6157 20.9266 22.0361 21.4432 22.0361C22.6846 21.9889 22.6842 20.209 21.4432 20.1621C20.9266 20.1621 20.5062 20.5824 20.5062 21.0991Z" fill="#14F194"/>
</g>
<defs>
<clipPath id="clip0_78_4532">
<rect width="28" height="28" fill="white" transform="translate(7.44064 7.44043)"/>
</clipPath>
</defs>
</svg>
