<svg width="28" height="28" viewBox="0 0 28 28" fill="none" xmlns="http://www.w3.org/2000/svg">
<path d="M26.1601 3.91872C26.1098 3.55771 25.8501 3.26075 25.4989 3.16315L14.2453 0.0334902C14.0848 -0.0111634 13.9154 -0.0111634 13.7548 0.0334902L2.50111 3.16315C2.14999 3.26075 1.89024 3.55759 1.83997 3.91872C1.7747 4.38807 0.285637 15.4778 4.10498 20.9946C7.91982 26.5048 13.5475 27.9169 13.7852 27.9743C13.8558 27.9914 13.9278 27.9998 14 27.9998C14.0723 27.9998 14.1442 27.9913 14.2149 27.9743C14.4527 27.9169 20.0804 26.5048 23.8951 20.9946C27.7144 15.4779 26.2253 4.38819 26.1601 3.91872ZM21.2572 10.393L13.5811 18.0691C13.4024 18.2478 13.1682 18.3372 12.9341 18.3372C12.6999 18.3372 12.4657 18.2479 12.2871 18.0691L7.54099 13.3231C7.36933 13.1515 7.27295 12.9187 7.27295 12.6761C7.27295 12.4334 7.36945 12.2006 7.54099 12.0291L8.48335 11.0867C8.8407 10.7295 9.4201 10.7294 9.77733 11.0867L12.9341 14.2435L19.0209 8.15654C19.1924 7.98488 19.4252 7.8885 19.6679 7.8885C19.9105 7.8885 20.1433 7.98488 20.3148 8.15654L21.2572 9.0989C21.6146 9.45625 21.6146 10.0357 21.2572 10.393Z" fill="#14F194"/>
</svg>
