<svg width="246" height="226" viewBox="0 0 246 226" fill="none" xmlns="http://www.w3.org/2000/svg">
<g filter="url(#filter0_bi_78_4531)">
<path d="M183.026 0H10.7203C4.79965 0 0 4.79965 0 10.7203V181.55C0 184.555 1.26121 187.422 3.47634 189.452L39.8073 222.756C41.7845 224.568 44.3692 225.573 47.0513 225.573H234.565C240.486 225.573 245.286 220.774 245.286 214.853V58.2953C245.286 55.3033 244.035 52.4474 241.837 50.418L190.297 2.84299C188.317 1.01504 185.721 0 183.026 0Z" fill="white" fill-opacity="0.2"/>
<path d="M10.7203 0.44668H183.026C185.609 0.44668 188.096 1.41943 189.994 3.17121L241.534 50.7462C243.641 52.6911 244.839 55.4279 244.839 58.2953V214.853C244.839 220.527 240.239 225.127 234.565 225.127H47.0513C44.4809 225.127 42.0039 224.163 40.1092 222.426L3.77817 189.123C1.65534 187.177 0.44668 184.429 0.44668 181.55V10.7203C0.44668 5.04634 5.04635 0.44668 10.7203 0.44668Z" stroke="url(#paint0_linear_78_4531)" stroke-opacity="0.5" stroke-width="0.89336"/>
</g>
<defs>
<filter id="filter0_bi_78_4531" x="-17.8672" y="-17.8672" width="281.02" height="261.308" filterUnits="userSpaceOnUse" color-interpolation-filters="sRGB">
<feFlood flood-opacity="0" result="BackgroundImageFix"/>
<feGaussianBlur in="BackgroundImageFix" stdDeviation="8.9336"/>
<feComposite in2="SourceAlpha" operator="in" result="effect1_backgroundBlur_78_4531"/>
<feBlend mode="normal" in="SourceGraphic" in2="effect1_backgroundBlur_78_4531" result="shape"/>
<feColorMatrix in="SourceAlpha" type="matrix" values="0 0 0 0 0 0 0 0 0 0 0 0 0 0 0 0 0 0 127 0" result="hardAlpha"/>
<feOffset/>
<feGaussianBlur stdDeviation="1.78672"/>
<feComposite in2="hardAlpha" operator="arithmetic" k2="-1" k3="1"/>
<feColorMatrix type="matrix" values="0 0 0 0 1 0 0 0 0 0.937667 0 0 0 0 0.716667 0 0 0 0.25 0"/>
<feBlend mode="normal" in2="shape" result="effect2_innerShadow_78_4531"/>
</filter>
<linearGradient id="paint0_linear_78_4531" x1="0" y1="0" x2="304.912" y2="298.079" gradientUnits="userSpaceOnUse">
<stop stop-color="#7A7549" stop-opacity="0"/>
<stop offset="1" stop-color="white"/>
</linearGradient>
</defs>
</svg>
