<svg width="43" height="43" viewBox="0 0 43 43" fill="none" xmlns="http://www.w3.org/2000/svg">
<rect width="42.8813" height="42.8813" rx="21.4406" fill="#1E1E1E"/>
<g clip-path="url(#clip0_78_4563)">
<path d="M33.6007 11.3591C33.5504 10.9981 33.2907 10.7012 32.9396 10.6036L21.6859 7.47392C21.5254 7.42927 21.356 7.42927 21.1954 7.47392L9.94173 10.6036C9.5906 10.7012 9.33086 10.998 9.28059 11.3591C9.21532 11.8285 7.72626 22.9182 11.5456 28.435C15.3604 33.9452 20.9881 35.3573 21.2258 35.4147C21.2964 35.4318 21.3684 35.4402 21.4406 35.4402C21.5129 35.4402 21.5849 35.4317 21.6555 35.4147C21.8933 35.3573 27.521 33.9452 31.3357 28.435C35.155 22.9183 33.666 11.8286 33.6007 11.3591ZM28.6978 17.8334L21.0217 25.5096C20.8431 25.6882 20.6088 25.7776 20.3747 25.7776C20.1406 25.7776 19.9063 25.6883 19.7277 25.5096L14.9816 20.7635C14.81 20.5919 14.7136 20.3592 14.7136 20.1165C14.7136 19.8738 14.8101 19.641 14.9816 19.4695L15.924 18.5271C16.2813 18.1699 16.8607 18.1698 17.218 18.5271L20.3747 21.6839L26.4615 15.597C26.633 15.4253 26.8658 15.3289 27.1085 15.3289C27.3511 15.3289 27.5839 15.4253 27.7555 15.597L28.6978 16.5393C29.0552 16.8967 29.0552 17.4761 28.6978 17.8334Z" fill="#14F194"/>
</g>
<defs>
<clipPath id="clip0_78_4563">
<rect width="28" height="28" fill="white" transform="translate(7.44064 7.44043)"/>
</clipPath>
</defs>
</svg>
