<svg width="28" height="28" viewBox="0 0 28 28" fill="none" xmlns="http://www.w3.org/2000/svg">
<path d="M13.1797 1.92285C10.0176 2.10436 7.05223 3.33313 4.6853 5.44259L8.34587 9.10316C9.72344 7.9563 11.3961 7.26325 13.1797 7.10028V1.92285Z" fill="#0CC697"/>
<path d="M7.18522 10.263L3.52471 6.60254C1.41345 8.96881 0.183145 11.9344 0.000488281 15.0973H5.17814C5.3422 13.3134 6.03673 11.6405 7.18522 10.263Z" fill="#0CC697"/>
<path d="M22.8218 15.0973H27.9994C27.8168 11.9344 26.5865 8.96881 24.4752 6.60254L20.8147 10.263C21.9632 11.6405 22.6577 13.3134 22.8218 15.0973Z" fill="#0CC697"/>
<path d="M22.8207 16.7373C22.7057 18.0008 22.3451 19.0546 21.9187 19.8999C22.3347 20.5414 22.6815 21.0836 22.9107 21.4437C23.5346 22.4243 23.3965 23.6831 22.5747 24.505C22.3751 24.7046 22.1472 24.8653 21.9001 24.9842L22.7527 25.8368C22.9131 25.9972 23.1235 26.0774 23.3337 26.0774C23.5441 26.0774 23.7543 25.9972 23.9147 25.8368C26.3715 23.3803 27.804 20.1747 28.0001 16.7373H22.8207Z" fill="#0CC697"/>
<path d="M5.17945 16.7373H0C0.196055 20.1747 1.62859 23.3803 4.08532 25.8368C4.24577 25.9973 4.45605 26.0775 4.66632 26.0775C4.87659 26.0775 5.08692 25.9972 5.24738 25.8368L7.73631 23.3477C8.05716 23.0268 8.05716 22.5065 7.73631 22.1856C7.08679 21.5361 5.4507 19.7176 5.17945 16.7373Z" fill="#0CC697"/>
<path d="M23.3148 5.44259C20.9478 3.33308 17.9825 2.10436 14.8203 1.92285V7.10028C16.6039 7.26325 18.2766 7.9563 19.6542 9.10316L23.3148 5.44259Z" fill="#0CC697"/>
<path d="M15.8228 14.1082C14.8178 13.1032 13.1826 13.1032 12.1776 14.1082C11.1726 15.1132 11.1726 16.7485 12.1776 17.7535C13.4472 19.0231 19.6868 23.0071 20.3941 23.4572C20.7184 23.6636 21.1427 23.617 21.4146 23.3452C21.6864 23.0733 21.733 22.6491 21.5266 22.3247C21.0764 21.6174 17.0924 15.3778 15.8228 14.1082Z" fill="#0CC697"/>
</svg>
