<svg width="43" height="43" viewBox="0 0 43 43" fill="none" xmlns="http://www.w3.org/2000/svg">
<rect width="42.8813" height="42.8813" rx="21.4406" fill="#1E1E1E"/>
<g clip-path="url(#clip0_78_4550)">
<path d="M16.6751 16.675C22.1287 16.675 26.2038 14.5191 26.2038 12.5914C26.2038 10.6638 22.1287 8.50781 16.6751 8.50781C11.2215 8.50781 7.1465 10.6638 7.1465 12.5914C7.1465 14.5191 11.2214 16.675 16.6751 16.675Z" fill="#14F194"/>
<path d="M16.6751 33.0105C17.4711 33.0105 18.2372 32.9642 18.966 32.8799C18.3517 32.0904 17.8437 31.2143 17.4631 30.2735C17.2016 30.2823 16.9392 30.2884 16.675 30.2884C13.5588 30.2884 10.6077 29.6709 8.36552 28.5498C7.92405 28.329 7.51779 28.0919 7.14647 27.8408V28.9269C7.14647 30.8545 11.2214 33.0105 16.6751 33.0105Z" fill="#14F194"/>
<path d="M16.6752 27.5652C16.7031 27.5652 16.7306 27.5647 16.7585 27.5646C16.7027 27.1184 16.6735 26.664 16.6735 26.2029C16.6735 25.742 16.7026 25.2878 16.7585 24.842C16.7306 24.842 16.703 24.843 16.6752 24.843C13.559 24.843 10.6079 24.2255 8.3657 23.1044C7.92414 22.8836 7.51779 22.6465 7.14647 22.3955V23.4815C7.14656 25.4091 11.2215 27.5652 16.6752 27.5652Z" fill="#14F194"/>
<path d="M16.6752 22.1198C16.9453 22.1198 17.2118 22.1143 17.4749 22.104C17.8975 21.0672 18.475 20.1095 19.1792 19.2602C18.3639 19.3501 17.5261 19.3977 16.6752 19.3977C13.559 19.3977 10.6079 18.7803 8.3657 17.6592C7.92414 17.4383 7.51779 17.2012 7.14647 16.9502V18.0363C7.14656 19.9639 11.2215 22.1198 16.6752 22.1198Z" fill="#14F194"/>
<path d="M20.7594 21.6904C20.1703 22.576 19.7495 23.5825 19.5424 24.664C19.4468 25.1626 19.3964 25.677 19.3964 26.203C19.3964 26.5984 19.4252 26.9872 19.4798 27.3678C19.6138 28.3028 19.9067 29.1868 20.3302 29.9922C20.7746 30.8373 21.3625 31.5956 22.0617 32.2341C23.5146 33.5612 25.447 34.3717 27.5652 34.3717C32.0694 34.3717 35.7339 30.7072 35.7339 26.203C35.7339 21.6986 32.0694 18.0342 27.5652 18.0342C27.0996 18.0342 26.6432 18.0739 26.1986 18.1491C23.9342 18.532 21.9839 19.8498 20.7594 21.6904Z" fill="#14F194"/>
</g>
<defs>
<clipPath id="clip0_78_4550">
<rect width="28.5875" height="28.5875" fill="white" transform="translate(7.1468 7.14648)"/>
</clipPath>
</defs>
</svg>
