<svg width="28" height="26" viewBox="0 0 28 26" fill="none" xmlns="http://www.w3.org/2000/svg">
<path d="M13.1797 0.922852C10.0176 1.10436 7.05223 2.33313 4.6853 4.44259L8.34587 8.10316C9.72344 6.9563 11.3961 6.26325 13.1797 6.10028V0.922852Z" fill="#14F194"/>
<path d="M7.18522 9.26305L3.52471 5.60254C1.41345 7.96881 0.183145 10.9344 0.000488281 14.0973H5.17814C5.3422 12.3134 6.03673 10.6405 7.18522 9.26305Z" fill="#14F194"/>
<path d="M22.8218 14.0973H27.9994C27.8168 10.9344 26.5865 7.96881 24.4752 5.60254L20.8147 9.26305C21.9632 10.6405 22.6577 12.3134 22.8218 14.0973Z" fill="#14F194"/>
<path d="M22.8207 15.7373C22.7057 17.0008 22.3451 18.0546 21.9187 18.8999C22.3347 19.5414 22.6815 20.0836 22.9107 20.4437C23.5346 21.4243 23.3965 22.6831 22.5747 23.505C22.3751 23.7046 22.1472 23.8653 21.9001 23.9842L22.7527 24.8368C22.9131 24.9972 23.1235 25.0774 23.3337 25.0774C23.5441 25.0774 23.7543 24.9972 23.9147 24.8368C26.3715 22.3803 27.804 19.1747 28.0001 15.7373H22.8207Z" fill="#14F194"/>
<path d="M5.17945 15.7373H0C0.196055 19.1747 1.62859 22.3803 4.08532 24.8368C4.24577 24.9973 4.45605 25.0775 4.66632 25.0775C4.87659 25.0775 5.08692 24.9972 5.24738 24.8368L7.73631 22.3477C8.05716 22.0268 8.05716 21.5065 7.73631 21.1856C7.08679 20.5361 5.4507 18.7176 5.17945 15.7373Z" fill="#14F194"/>
<path d="M23.3148 4.44259C20.9478 2.33308 17.9825 1.10436 14.8203 0.922852V6.10028C16.6039 6.26325 18.2766 6.9563 19.6542 8.10316L23.3148 4.44259Z" fill="#14F194"/>
<path d="M15.8228 13.1082C14.8178 12.1032 13.1826 12.1032 12.1776 13.1082C11.1726 14.1132 11.1726 15.7485 12.1776 16.7535C13.4472 18.0231 19.6868 22.0071 20.3941 22.4572C20.7184 22.6636 21.1427 22.617 21.4146 22.3452C21.6864 22.0733 21.733 21.6491 21.5266 21.3247C21.0764 20.6174 17.0924 14.3778 15.8228 13.1082Z" fill="#14F194"/>
</svg>
