<svg width="46" height="47" viewBox="0 0 46 47" fill="none" xmlns="http://www.w3.org/2000/svg">
<g clip-path="url(#clip0_78_4484)">
<path fill-rule="evenodd" clip-rule="evenodd" d="M2.94451 5.56158L1.21075 5.46977L1.20289 7.22074L1.20202 7.58572C1.2015 7.87005 1.20081 8.36088 1.20012 9.18784C1.19874 10.8416 1.19736 13.8408 1.19736 19.2226V19.9139L3.25162 21.9858C2.43824 22.5019 1.621 23.012 0.800006 23.5163L0.00642877 24.0037L0 35.546L9.47545 45.1085L10.0975 45.1495C21.7242 45.9154 33.6815 45.0656 44.8848 41.1675L46 40.7795V26.9097L43.5763 24.4653C43.9893 24.0541 44.4013 23.6395 44.8103 23.2223L45.2884 22.7346V22.0488C45.2884 21.5754 45.2898 19.0963 45.2912 16.7346L45.2943 11.4386L35.5347 1.5957L34.5633 1.9239C24.4766 5.33177 13.6582 6.1289 2.94451 5.56158ZM35.089 3.50644L43.639 12.1295C43.639 12.1295 43.6335 21.1007 43.6335 22.0488C43.2271 22.4633 42.8173 22.8757 42.4061 23.2851C42.0123 23.6771 41.6172 24.0662 41.2225 24.4517L44.3451 27.601V39.5897C33.4113 43.3941 21.6885 44.2406 10.2054 43.484L1.65525 34.8554L1.66077 24.9417C2.59576 24.3675 3.52604 23.7856 4.45145 23.1958C4.92902 22.8915 5.40529 22.585 5.88022 22.2765L2.85222 19.2226C2.85222 13.5102 2.85377 10.4828 2.85524 8.89941C2.85653 7.49936 2.85774 7.22829 2.85774 7.22829C3.40881 7.25743 3.96039 7.28306 4.51236 7.30496C14.8213 7.71414 25.2683 6.82441 35.089 3.50644Z" fill="white"/>
<path fill-rule="evenodd" clip-rule="evenodd" d="M2.85771 7.22766C13.7008 7.80184 24.7425 7.00148 35.0889 3.50586L43.639 12.1289C43.639 12.1289 43.6335 21.1001 43.6335 22.0482C42.8378 22.8598 42.0292 23.6631 41.2225 24.4511L44.3451 27.6004V39.5892C33.4113 43.3935 21.6884 44.24 10.2053 43.4834L1.65522 34.8548L1.66075 24.9412C3.07825 24.0705 4.48492 23.1823 5.88022 22.2759L2.85219 19.2221C2.85219 8.45882 2.85771 7.22766 2.85771 7.22766Z" fill="#0D0D0D"/>
<path d="M40.3238 16.4909V21.2976C34.9896 26.4269 29.6555 30.8997 24.3268 34.8886C29.8982 34.5159 35.464 33.6202 41.0409 31.9957C41.0409 33.7704 41.0409 35.5395 41.0409 37.3142C33.3513 39.5617 25.6672 40.4129 17.9832 40.4129C16.4938 40.4129 15.0044 40.3796 13.5151 40.3183V35.5117C18.8492 32.0903 24.1834 28.3128 29.5121 23.9902C25.6783 24.4853 21.8445 24.6967 18.0107 24.6967C16.9075 24.6967 15.8098 24.68 14.7065 24.6466C14.7065 22.872 14.7065 21.1028 14.7065 19.3282C15.7987 19.3616 16.8855 19.3782 17.9777 19.3782C25.4245 19.3782 32.8714 18.5827 40.3183 16.4854L40.3238 16.4909Z" fill="white"/>
</g>
<defs>
<clipPath id="clip0_78_4484">
<rect width="46" height="46" fill="white" transform="translate(0 0.5)"/>
</clipPath>
</defs>
</svg>
