<?xml version="1.0" encoding="UTF-8"?>
<!DOCTYPE svg PUBLIC "-//W3C//DTD SVG 1.1//EN" "http://www.w3.org/Graphics/SVG/1.1/DTD/svg11.dtd">
<svg xmlns="http://www.w3.org/2000/svg" version="1.1" width="48px" height="48px" style="shape-rendering:geometricPrecision; text-rendering:geometricPrecision; image-rendering:optimizeQuality; fill-rule:evenodd; clip-rule:evenodd" xmlns:xlink="http://www.w3.org/1999/xlink">
<g><path style="opacity:0.918" fill="#040401" d="M 11.5,-0.5 C 12.1667,-0.5 12.8333,-0.5 13.5,-0.5C 14.1667,0.833333 14.8333,0.833333 15.5,-0.5C 20.8333,-0.5 26.1667,-0.5 31.5,-0.5C 32.1667,0.833333 32.8333,0.833333 33.5,-0.5C 34.1667,-0.5 34.8333,-0.5 35.5,-0.5C 38.8197,3.89232 42.4863,8.55899 46.5,13.5C 46.2627,14.791 46.596,15.791 47.5,16.5C 47.5,21.1667 47.5,25.8333 47.5,30.5C 46.596,31.209 46.2627,32.209 46.5,33.5C 45.6618,33.8417 45.3284,34.5084 45.5,35.5C 44.6618,35.8417 44.3284,36.5084 44.5,37.5C 43.8333,37.5 43.5,37.8333 43.5,38.5C 42.8333,38.5 42.5,38.8333 42.5,39.5C 41.8333,39.5 41.5,39.8333 41.5,40.5C 40.8333,40.5 40.5,40.8333 40.5,41.5C 39.8333,41.5 39.5,41.8333 39.5,42.5C 38.8333,42.5 38.5,42.8333 38.5,43.5C 37.1667,43.8333 37.1667,44.1667 38.5,44.5C 37.6935,45.7281 36.6935,46.7281 35.5,47.5C 34.8333,47.5 34.1667,47.5 33.5,47.5C 32.8333,46.1667 32.1667,46.1667 31.5,47.5C 26.1667,47.5 20.8333,47.5 15.5,47.5C 14.8333,46.1667 14.1667,46.1667 13.5,47.5C 12.8333,47.5 12.1667,47.5 11.5,47.5C 9.61951,44.0556 6.78618,40.7223 3,37.5C 1.78739,35.0748 0.620727,32.7415 -0.5,30.5C -0.5,25.8333 -0.5,21.1667 -0.5,16.5C 0.620727,14.2585 1.78739,11.9252 3,9.5C 6.78618,6.27773 9.61951,2.94439 11.5,-0.5 Z"/></g>
<g><path style="opacity:0.01" fill="#000000" d="M 47.5,11.5 C 47.5,12.1667 47.5,12.8333 47.5,13.5C 47.1667,13.5 46.8333,13.5 46.5,13.5C 46.3284,12.5084 46.6618,11.8417 47.5,11.5 Z"/></g>
<g><path style="opacity:1" fill="#eded0d" d="M 30.5,33.5 C 23.4163,34.1255 16.7496,33.4589 10.5,31.5C 11.4932,26.6866 12.9932,22.0199 15,17.5C 16.4866,18.1552 17.6533,19.1552 18.5,20.5C 17.8049,23.2802 16.8049,25.9469 15.5,28.5C 20.7921,29.4948 26.1254,29.8282 31.5,29.5C 31.2865,27.8561 31.6198,26.3561 32.5,25C 28.789,24.8253 25.1224,24.3253 21.5,23.5C 21.7093,22.914 22.0426,22.414 22.5,22C 26.211,21.8253 29.8776,21.3253 33.5,20.5C 34.2458,19.2638 34.5792,17.9305 34.5,16.5C 25.8269,16.6664 17.1603,16.4998 8.5,16C 9.55054,14.6152 10.8839,13.6152 12.5,13C 20.8333,12.3333 29.1667,12.3333 37.5,13C 40.1459,17.7106 38.8126,21.044 33.5,23C 37.1685,27.5237 36.1685,31.0237 30.5,33.5 Z"/></g>
<g><path style="opacity:1" fill="#949410" d="M 10.5,31.5 C 16.7496,33.4589 23.4163,34.1255 30.5,33.5C 23.6866,34.4912 16.6866,34.8245 9.5,34.5C 9.26269,33.209 9.59603,32.209 10.5,31.5 Z"/></g>
<g><path style="opacity:0.01" fill="#000000" d="M 46.5,33.5 C 46.8333,33.5 47.1667,33.5 47.5,33.5C 47.5,34.1667 47.5,34.8333 47.5,35.5C 47.1667,35.5 46.8333,35.5 46.5,35.5C 46.5,34.8333 46.5,34.1667 46.5,33.5 Z"/></g>
<g><path style="opacity:0.008" fill="#000000" d="M 45.5,35.5 C 45.8333,35.5 46.1667,35.5 46.5,35.5C 46.6716,36.4916 46.3382,37.1583 45.5,37.5C 45.5,36.8333 45.5,36.1667 45.5,35.5 Z"/></g>
<g><path style="opacity:0.008" fill="#000000" d="M 44.5,37.5 C 44.8333,37.5 45.1667,37.5 45.5,37.5C 45.3147,38.1701 44.9813,38.1701 44.5,37.5 Z"/></g>
<g><path style="opacity:0.012" fill="#000000" d="M 43.5,38.5 C 43.8333,38.5 44.1667,38.5 44.5,38.5C 44.3147,39.1701 43.9813,39.1701 43.5,38.5 Z"/></g>
<g><path style="opacity:0.016" fill="#000000" d="M 42.5,39.5 C 42.8333,39.5 43.1667,39.5 43.5,39.5C 43.3147,40.1701 42.9813,40.1701 42.5,39.5 Z"/></g>
<g><path style="opacity:0.016" fill="#000000" d="M 41.5,40.5 C 41.8333,40.5 42.1667,40.5 42.5,40.5C 42.3147,41.1701 41.9813,41.1701 41.5,40.5 Z"/></g>
<g><path style="opacity:0.012" fill="#000000" d="M 40.5,41.5 C 40.8333,41.5 41.1667,41.5 41.5,41.5C 41.3147,42.1701 40.9813,42.1701 40.5,41.5 Z"/></g>
<g><path style="opacity:0.016" fill="#000000" d="M 39.5,42.5 C 39.8333,42.5 40.1667,42.5 40.5,42.5C 40.3147,43.1701 39.9813,43.1701 39.5,42.5 Z"/></g>
<g><path style="opacity:0.012" fill="#000000" d="M 38.5,43.5 C 38.8333,43.5 39.1667,43.5 39.5,43.5C 39.3147,44.1701 38.9813,44.1701 38.5,43.5 Z"/></g>
</svg>
